<svg xmlns="http://www.w3.org/2000/svg" xmlns:xlink="http://www.w3.org/1999/xlink" viewBox="0 0 552.19 120.39"><defs><style>.cls-1{fill:none;clip-rule:evenodd;}.cls-2{clip-path:url(#clip-path);}.cls-3{clip-path:url(#clip-path-2);}.cls-4{fill:#515151;}.cls-5{clip-path:url(#clip-path-3);}.cls-6{fill:#2b2c32;}.cls-7{clip-path:url(#clip-path-4);}.cls-8{clip-path:url(#clip-path-5);}.cls-9{clip-path:url(#clip-path-6);}.cls-10{clip-path:url(#clip-path-7);}.cls-11{clip-path:url(#clip-path-8);}.cls-12{clip-path:url(#clip-path-9);}.cls-13{clip-path:url(#clip-path-10);}.cls-14{clip-path:url(#clip-path-11);}.cls-15{clip-path:url(#clip-path-12);}.cls-16{clip-path:url(#clip-path-13);}.cls-17{clip-path:url(#clip-path-14);}.cls-18{clip-path:url(#clip-path-15);}</style><clipPath id="clip-path"><polygon class="cls-1" points="56.81 10.47 66.15 10.47 66.15 88.33 56.81 82.67 56.81 10.47"/></clipPath><clipPath id="clip-path-2"><polygon class="cls-1" points="75.49 10.47 66.15 10.47 66.15 88.33 75.49 82.67 75.49 10.47"/></clipPath><clipPath id="clip-path-3"><polygon class="cls-1" points="56.81 10.47 65.67 4.98 75.48 10.47 66.15 16.02 56.81 10.47"/></clipPath><clipPath id="clip-path-4"><polygon class="cls-1" points="42.87 69.66 51.73 74.8 51.84 85.37 42.87 80.05 42.87 69.66"/></clipPath><clipPath id="clip-path-5"><polygon class="cls-1" points="60.88 69.38 51.71 74.82 51.83 85.38 60.88 79.96 60.88 69.38"/></clipPath><clipPath id="clip-path-6"><polygon class="cls-1" points="42.37 69.68 51.7 74.83 60.74 69.49 51.49 64.19 50.02 65.07 42.37 69.68"/></clipPath><clipPath id="clip-path-7"><polygon class="cls-1" points="29.49 56.29 38.45 61.15 38.45 81.74 29.49 76.93 29.49 56.29"/></clipPath><clipPath id="clip-path-8"><polygon class="cls-1" points="47.5 55.98 38.45 61.16 38.45 81.78 47.5 76.84 47.5 55.98"/></clipPath><clipPath id="clip-path-9"><polygon class="cls-1" points="29.46 56.32 38.47 61.2 47.5 55.97 38.39 50.63 29.46 56.32"/></clipPath><clipPath id="clip-path-10"><polygon class="cls-1" points="15.8 84.91 24.76 90.02 24.76 100.62 15.8 95.3 15.8 84.91"/></clipPath><clipPath id="clip-path-11"><polygon class="cls-1" points="33.8 84.63 24.63 90.07 24.76 100.62 33.8 95.21 33.8 84.63"/></clipPath><clipPath id="clip-path-12"><polygon class="cls-1" points="15.3 84.93 24.63 90.08 33.79 84.65 24.41 79.44 22.95 80.32 15.3 84.93"/></clipPath><clipPath id="clip-path-13"><polygon class="cls-1" points="2.35 40.97 11.69 40.97 11.69 118.83 2.35 113.17 2.35 40.97"/></clipPath><clipPath id="clip-path-14"><polygon class="cls-1" points="21.02 40.97 11.69 40.97 11.69 118.83 21.02 113.17 21.02 40.97"/></clipPath><clipPath id="clip-path-15"><polygon class="cls-1" points="2.36 40.96 11.21 35.48 21.02 40.96 11.69 46.52 2.36 40.96"/></clipPath></defs><title>Black Logo Final</title><g id="Layer_2" data-name="Layer 2"><g id="Layer_1-2" data-name="Layer 1"><path d="M103.55,7.15l20,47.6,14.24-33.68a2.21,2.21,0,0,1,1.84-1.2,2.26,2.26,0,0,1,2,1.2l14.16,33.68,20-47.6a2,2,0,0,1,2.64-1,1.9,1.9,0,0,1,1,2.56L157.63,60.43a2.26,2.26,0,0,1-1.6,1.28h-.4a1.54,1.54,0,0,1-1-.32c-.08-.08-.24-.16-.32-.32a2.49,2.49,0,0,1-.32-.48.29.29,0,0,0-.08-.24L139.71,26.51,125.39,60.35a.61.61,0,0,1-.16.4,1.43,1.43,0,0,1-.4.56.28.28,0,0,0-.16.08,1.84,1.84,0,0,1-1.12.32,2,2,0,0,1-1.2-.4l-.16-.16-.08-.08a1.82,1.82,0,0,1-.48-1L100,8.75a1.93,1.93,0,1,1,3.52-1.6Z"/><path d="M213,4.91c15,0,26.72,12.72,26.8,28.4C239.71,49,228,61.71,213,61.71c-15.12,0-27-12.72-27-28.4C186,17.63,197.87,4.91,213,4.91Zm0,52.88c12.32,0,22.72-10.8,22.8-24.48-.08-13.84-10.48-24.4-22.8-24.4-12.72,0-23.12,10.56-23.12,24.4C189.87,47,200.27,57.79,213,57.79Z"/><path d="M258.11,61.71H258A2,2,0,0,1,256,59.79V7.63a2,2,0,0,1,3.92,0V57.79h26.8a2,2,0,1,1,0,3.92Z"/><path d="M301.07,7.63a1.93,1.93,0,0,1,1.84-1.92h29a2,2,0,0,1,0,3.92H305V31.79h23.52a2,2,0,1,1,0,3.92H305V59.79a2,2,0,0,1-3.92,0Z"/><path d="M349.47,7.63a2,2,0,0,1,1.92-1.92h28.8a1.9,1.9,0,0,1,1.92,1.92,1.91,1.91,0,0,1-1.92,2h-26.8V31.79h23.44a2,2,0,0,1,0,3.92H353.39V57.79h26.8a1.91,1.91,0,0,1,1.92,2,1.9,1.9,0,0,1-1.92,1.92h-29a1.92,1.92,0,0,1-1.76-1.92Z"/><path d="M399,61.71h-.32a1.92,1.92,0,0,1-1.76-1.92V7.63a2,2,0,0,1,1.92-1.92h10.48a28,28,0,1,1,0,56Zm10.32-3.92a24.08,24.08,0,1,0,0-48.16h-8.48V57.79Z"/><path d="M480.59,36.51a1.91,1.91,0,0,1-2-1.92,2,2,0,0,1,2-2h17.52a2,2,0,0,1,1.76,2V54.11a2.27,2.27,0,0,1-.72,1.44,28.89,28.89,0,0,1-18.08,6.16C465,61.63,452,49.07,452,33.23c0-15.6,13-28.32,29.12-28.32a29.24,29.24,0,0,1,18.16,6.32,2,2,0,0,1,.24,2.72,2.08,2.08,0,0,1-2.8.32,24.6,24.6,0,0,0-15.6-5.44c-14,0-25.2,11-25.2,24.4,0,13.6,11.2,24.56,25.2,24.56a25.16,25.16,0,0,0,14.8-4.8V36.51Z"/><path d="M519.55,7.63a2,2,0,0,1,1.92-1.92h28.8a1.9,1.9,0,0,1,1.92,1.92,1.91,1.91,0,0,1-1.92,2h-26.8V31.79h23.44a2,2,0,0,1,0,3.92H523.47V57.79h26.8a1.91,1.91,0,0,1,1.92,2,1.9,1.9,0,0,1-1.92,1.92h-29a1.92,1.92,0,0,1-1.76-1.92Z"/><path d="M111.07,96.82a11.55,11.55,0,0,1,7,2.38.76.76,0,0,1,.12,1.09.72.72,0,0,1-1,.15,9.9,9.9,0,0,0-6.08-2.1,9.49,9.49,0,1,0,0,19,9.22,9.22,0,0,0,6-2.11.75.75,0,0,1,1.08.19.72.72,0,0,1-.09,1.08,11.47,11.47,0,0,1-7,2.36,11,11,0,1,1,0-22Z"/><path d="M191.11,113.22h-9.89l-1.92,5.11a.76.76,0,0,1-.71.5l-.28,0a.8.8,0,0,1-.44-1l7.54-20.13a.83.83,0,0,1,.74-.46.79.79,0,0,1,.75.46l7.53,20.13a.77.77,0,0,1-.4,1c-.13,0-.19,0-.28,0a.79.79,0,0,1-.71-.5Zm-9.33-1.52h8.78L186.18,100Z"/><path d="M254.32,97.87a.75.75,0,0,1,.74-.74h6.14a6.19,6.19,0,0,1,0,12.37l-5.36.06v8.53a.76.76,0,0,1-.78.74.75.75,0,0,1-.74-.74ZM261.2,108a4.75,4.75,0,0,0,4.69-4.71,4.69,4.69,0,0,0-4.69-4.68h-5.36V108Z"/><path d="M327.67,97.87a.75.75,0,0,1,.74-.74.77.77,0,0,1,.78.74v20.22a.77.77,0,0,1-.78.74.75.75,0,0,1-.74-.74Z"/><path d="M397.57,98.65H391a.78.78,0,0,1-.75-.78.76.76,0,0,1,.75-.74H405.6a.75.75,0,0,1,.75.74.77.77,0,0,1-.75.78h-6.54v19.44a.75.75,0,0,1-1.49,0Z"/><path d="M476,113.22h-9.89l-1.92,5.11a.76.76,0,0,1-.71.5l-.28,0a.8.8,0,0,1-.44-1l7.54-20.13a.83.83,0,0,1,.74-.46.79.79,0,0,1,.75.46l7.53,20.13a.77.77,0,0,1-.4,1c-.13,0-.19,0-.28,0a.79.79,0,0,1-.71-.5Zm-9.33-1.52h8.78L471.1,100Z"/><path d="M540.05,118.83H540a.75.75,0,0,1-.74-.74V97.87a.75.75,0,0,1,.74-.74.76.76,0,0,1,.78.74v19.44h10.39a.77.77,0,0,1,.77.78.76.76,0,0,1-.77.74Z"/><g class="cls-2"><rect x="55.26" y="8.91" width="12.45" height="80.97"/></g><g class="cls-3"><rect class="cls-4" x="64.6" y="8.91" width="12.45" height="80.97"/></g><g class="cls-5"><rect class="cls-6" x="56.39" y="3.9" width="19.43" height="13" transform="translate(3.25 33.35) rotate(-29)"/></g><g class="cls-7"><rect x="41.32" y="68.1" width="12.07" height="18.83"/></g><g class="cls-8"><rect class="cls-4" x="50.15" y="67.83" width="12.29" height="19.11"/></g><g class="cls-9"><rect class="cls-6" x="41.9" y="63.28" width="19.27" height="12.52" transform="translate(-27.25 33.7) rotate(-29)"/></g><g class="cls-10"><rect x="27.94" y="54.74" width="12.07" height="28.56"/></g><g class="cls-11"><rect class="cls-4" x="36.9" y="54.42" width="12.16" height="28.91"/></g><g class="cls-12"><rect class="cls-6" x="28.84" y="49.75" width="19.05" height="12.4" transform="translate(-22.31 25.62) rotate(-29)"/></g><g class="cls-13"><rect x="14.24" y="83.35" width="12.07" height="18.83"/></g><g class="cls-14"><rect class="cls-4" x="23.07" y="83.08" width="12.29" height="19.1"/></g><g class="cls-15"><rect class="cls-6" x="14.81" y="78.49" width="19.42" height="12.52" transform="matrix(0.87, -0.48, 0.48, 0.87, -38.01, 22.52)"/></g><g class="cls-16"><rect x="0.79" y="39.41" width="12.45" height="80.97"/></g><g class="cls-17"><rect class="cls-4" x="10.13" y="39.41" width="12.45" height="80.97"/></g><g class="cls-18"><rect class="cls-6" x="1.93" y="34.39" width="19.44" height="13" transform="translate(-18.36 10.77) rotate(-29)"/></g></g></g></svg>