<svg xmlns="http://www.w3.org/2000/svg" xmlns:xlink="http://www.w3.org/1999/xlink" viewBox="0 0 552.39 122.03"><defs><style>.cls-1,.cls-2{fill:none;}.cls-2{clip-path:url(#clip-path);clip-rule:evenodd;}.cls-3{clip-path:url(#clip-path-16);}.cls-4{fill:#fdd033;}.cls-5{clip-path:url(#clip-path-17);}.cls-6{fill:#e5bb2e;}.cls-7{clip-path:url(#clip-path-18);}.cls-8{fill:#eac43f;}.cls-9{clip-path:url(#clip-path-19);}.cls-10{clip-path:url(#clip-path-20);}.cls-11{clip-path:url(#clip-path-21);}.cls-12{clip-path:url(#clip-path-22);}.cls-13{clip-path:url(#clip-path-23);}.cls-14{clip-path:url(#clip-path-24);}.cls-15{clip-path:url(#clip-path-25);}.cls-16{clip-path:url(#clip-path-26);}.cls-17{clip-path:url(#clip-path-27);}.cls-18{clip-path:url(#clip-path-28);}.cls-19{clip-path:url(#clip-path-29);}.cls-20{clip-path:url(#clip-path-30);}.cls-21{fill:#e0bc4c;}</style><clipPath id="clip-path"><rect class="cls-1" width="74.28" height="116"/></clipPath><clipPath id="clip-path-16" transform="translate(2.39 4.71)"><polygon class="cls-2" points="55.31 5.69 64.8 5.69 64.8 84.76 55.31 79.02 55.31 5.69 55.31 5.69"/></clipPath><clipPath id="clip-path-17" transform="translate(2.39 4.71)"><polygon class="cls-2" points="74.28 5.69 64.8 5.69 64.8 84.76 74.28 79.02 74.28 5.69 74.28 5.69"/></clipPath><clipPath id="clip-path-18" transform="translate(2.39 4.71)"><polygon class="cls-2" points="55.55 5.55 64.31 0.12 73.64 5.55 64.8 11.32 55.55 5.55 55.55 5.55"/></clipPath><clipPath id="clip-path-19" transform="translate(2.39 4.71)"><polygon class="cls-2" points="41.16 65.8 50.26 70.47 50.26 81.76 41.16 76.35 41.16 65.8 41.16 65.8"/></clipPath><clipPath id="clip-path-20" transform="translate(2.39 4.71)"><polygon class="cls-2" points="59.44 65.52 50.26 70.74 50.26 81.75 59.44 76.26 59.44 65.52 59.44 65.52"/></clipPath><clipPath id="clip-path-21" transform="translate(2.39 4.71)"><polygon class="cls-2" points="40.65 65.82 50.12 71.05 59.3 65.63 49.91 60.24 48.42 61.14 40.65 65.82 40.65 65.82"/></clipPath><clipPath id="clip-path-22" transform="translate(2.39 4.71)"><polygon class="cls-2" points="27.56 52.23 36.66 57.16 36.66 78.07 27.56 73.19 27.56 52.23 27.56 52.23"/></clipPath><clipPath id="clip-path-23" transform="translate(2.39 4.71)"><polygon class="cls-2" points="45.85 51.91 36.66 57.17 36.66 78.11 45.85 73.1 45.85 51.91 45.85 51.91"/></clipPath><clipPath id="clip-path-24" transform="translate(2.39 4.71)"><polygon class="cls-2" points="27.53 52.25 36.68 57.21 45.85 51.9 36.6 46.48 27.53 52.25 27.53 52.25"/></clipPath><clipPath id="clip-path-25" transform="translate(2.39 4.71)"><polygon class="cls-2" points="13.66 81.29 22.76 85.96 22.76 97.24 13.66 91.84 13.66 81.29 13.66 81.29"/></clipPath><clipPath id="clip-path-26" transform="translate(2.39 4.71)"><polygon class="cls-2" points="31.94 81.01 22.76 86.23 22.76 96.92 31.94 91.75 31.94 81.01 31.94 81.01"/></clipPath><clipPath id="clip-path-27" transform="translate(2.39 4.71)"><polygon class="cls-2" points="13.15 81.31 22.62 86.53 31.93 81.02 22.41 75.73 20.92 76.63 13.15 81.31 13.15 81.31"/></clipPath><clipPath id="clip-path-28" transform="translate(2.39 4.71)"><polygon class="cls-2" points="0 36.66 9.48 36.66 9.48 115.74 0 109.99 0 36.66 0 36.66"/></clipPath><clipPath id="clip-path-29" transform="translate(2.39 4.71)"><polygon class="cls-2" points="18.96 36.66 9.48 36.66 9.48 115.74 18.96 109.99 18.96 36.66 18.96 36.66"/></clipPath><clipPath id="clip-path-30" transform="translate(2.39 4.71)"><polygon class="cls-2" points="0.01 36.66 8.99 31.09 18.96 36.66 9.48 42.3 0.01 36.66 0.01 36.66"/></clipPath></defs><title>Asset 4</title><g id="Layer_2" data-name="Layer 2"><g id="Layer_1-2" data-name="Layer 1"><g class="cls-3"><rect class="cls-4" x="56.12" y="8.82" width="12.64" height="82.23"/></g><g class="cls-5"><rect class="cls-6" x="65.6" y="8.82" width="12.64" height="82.23"/></g><g class="cls-7"><rect class="cls-8" x="55.16" y="-0.94" width="18.98" height="13.2" transform="translate(7.75 36.76) rotate(-29)"/></g><g class="cls-9"><rect class="cls-4" x="41.96" y="68.93" width="12.26" height="19.12"/></g><g class="cls-10"><rect class="cls-6" x="51.06" y="68.65" width="12.35" height="19.39"/></g><g class="cls-11"><rect class="cls-8" x="40.16" y="59.32" width="19.57" height="12.72" transform="translate(-23.19 37.16) rotate(-29)"/></g><g class="cls-12"><rect class="cls-4" x="28.37" y="55.35" width="12.26" height="29"/></g><g class="cls-13"><rect class="cls-6" x="37.47" y="55.04" width="12.35" height="29.36"/></g><g class="cls-14"><rect class="cls-8" x="26.91" y="45.58" width="19.35" height="12.59" transform="translate(-18.18 28.95) rotate(-29)"/></g><g class="cls-15"><rect class="cls-4" x="14.46" y="84.41" width="12.26" height="19.12"/></g><g class="cls-16"><rect class="cls-6" x="23.56" y="84.14" width="12.35" height="19.08"/></g><g class="cls-17"><rect class="cls-8" x="12.66" y="74.77" width="19.73" height="12.72" transform="translate(-34.12 25.8) rotate(-29)"/></g><g class="cls-18"><rect class="cls-4" x="0.81" y="39.79" width="12.64" height="82.23"/></g><g class="cls-19"><rect class="cls-6" x="10.29" y="39.79" width="12.64" height="82.23"/></g><g class="cls-20"><rect class="cls-8" x="-0.42" y="29.98" width="19.74" height="13.2" transform="translate(-14.16 13.88) rotate(-29)"/></g><path class="cls-21" d="M101.36,2.69l20,47.6L135.6,16.61a2.21,2.21,0,0,1,1.85-1.2,2.27,2.27,0,0,1,2,1.2l14.16,33.68,20-47.6a2,2,0,0,1,2.64-1,1.9,1.9,0,0,1,1,2.56L155.45,56a2.28,2.28,0,0,1-1.6,1.28h-.4a1.52,1.52,0,0,1-1-.32c-.08-.08-.24-.16-.32-.32a2.1,2.1,0,0,1-.32-.48.29.29,0,0,0-.08-.24L137.53,22.05,123.21,55.89a.62.62,0,0,1-.17.4,1.43,1.43,0,0,1-.4.56.28.28,0,0,0-.16.08,1.82,1.82,0,0,1-1.12.32,1.91,1.91,0,0,1-1.19-.4l-.17-.16-.08-.08a1.82,1.82,0,0,1-.48-1L97.84,4.29a1.93,1.93,0,1,1,3.52-1.6Z" transform="translate(2.39 4.71)"/><path class="cls-21" d="M210.8.45c15,0,26.73,12.72,26.81,28.4-.08,15.68-11.85,28.4-26.81,28.4-15.12,0-27-12.72-27-28.4C183.84,13.17,195.68.45,210.8.45Zm0,52.88c12.32,0,22.73-10.8,22.81-24.48C233.53,15,223.12,4.45,210.8,4.45c-12.72,0-23.12,10.56-23.12,24.4C187.68,42.53,198.08,53.33,210.8,53.33Z" transform="translate(2.39 4.71)"/><path class="cls-21" d="M255.92,57.25h-.16a2,2,0,0,1-1.92-1.92V3.17a2,2,0,0,1,3.92,0V53.33h26.81a2,2,0,1,1,0,3.92Z" transform="translate(2.39 4.71)"/><path class="cls-21" d="M298.88,3.17a1.93,1.93,0,0,1,1.84-1.92h29a2,2,0,0,1,0,3.92H302.8V27.33h23.52a2,2,0,1,1,0,3.92H302.8V55.33a2,2,0,0,1-3.92,0Z" transform="translate(2.39 4.71)"/><path class="cls-21" d="M347.28,3.17a2,2,0,0,1,1.92-1.92H378a1.9,1.9,0,0,1,1.92,1.92,1.91,1.91,0,0,1-1.92,2H351.2V27.33h23.44a2,2,0,0,1,0,3.92H351.2V53.33H378a1.91,1.91,0,0,1,1.92,2A1.9,1.9,0,0,1,378,57.25H349a1.92,1.92,0,0,1-1.76-1.92Z" transform="translate(2.39 4.71)"/><path class="cls-21" d="M396.8,57.25h-.32a1.92,1.92,0,0,1-1.76-1.92V3.17a2,2,0,0,1,1.92-1.92h10.48a28,28,0,1,1,0,56Zm10.32-3.92a24.08,24.08,0,1,0,0-48.16h-8.48V53.33Z" transform="translate(2.39 4.71)"/><path class="cls-21" d="M478.4,32.05a1.91,1.91,0,0,1-2-1.92,2,2,0,0,1,2-2h17.52a2,2,0,0,1,1.76,2V49.65a2.27,2.27,0,0,1-.72,1.44,28.89,28.89,0,0,1-18.08,6.16c-16.08-.08-29.12-12.64-29.12-28.48,0-15.6,13-28.32,29.12-28.32A29.24,29.24,0,0,1,497,6.77a2,2,0,0,1,.24,2.72,2.08,2.08,0,0,1-2.8.32,24.6,24.6,0,0,0-15.6-5.44c-14,0-25.2,11-25.2,24.4,0,13.6,11.2,24.56,25.2,24.56a25.16,25.16,0,0,0,14.8-4.8V32.05Z" transform="translate(2.39 4.71)"/><path class="cls-21" d="M517.36,3.17a2,2,0,0,1,1.92-1.92h28.8A1.9,1.9,0,0,1,550,3.17a1.91,1.91,0,0,1-1.92,2h-26.8V27.33h23.44a2,2,0,0,1,0,3.92H521.28V53.33h26.8a1.91,1.91,0,0,1,1.92,2,1.9,1.9,0,0,1-1.92,1.92h-29a1.92,1.92,0,0,1-1.76-1.92Z" transform="translate(2.39 4.71)"/><path class="cls-21" d="M108.88,92.35a11.49,11.49,0,0,1,7,2.39.76.76,0,0,1,.12,1.09A.72.72,0,0,1,115,96a9.89,9.89,0,0,0-6.08-2.11,9.49,9.49,0,1,0,0,19,9.25,9.25,0,0,0,6-2.11.74.74,0,0,1,1.08.19.72.72,0,0,1-.09,1.08,11.47,11.47,0,0,1-7,2.36,11,11,0,1,1,0-22Z" transform="translate(2.39 4.71)"/><path class="cls-21" d="M188.92,108.76H179l-1.92,5.11a.76.76,0,0,1-.71.5l-.28,0a.8.8,0,0,1-.43-1l7.53-20.12a.81.81,0,0,1,.74-.46.77.77,0,0,1,.75.46l7.53,20.12a.78.78,0,0,1-.4,1c-.12,0-.19,0-.28,0a.79.79,0,0,1-.71-.5Zm-9.33-1.52h8.78L184,95.58Z" transform="translate(2.39 4.71)"/><path class="cls-21" d="M252.13,93.41a.76.76,0,0,1,.75-.75H259A6.19,6.19,0,0,1,259,105l-5.36.06v8.52a.76.76,0,0,1-1.52,0ZM259,103.58a4.7,4.7,0,0,0,0-9.4h-5.36v9.4Z" transform="translate(2.39 4.71)"/><path class="cls-21" d="M325.48,93.41a.75.75,0,0,1,.74-.75.76.76,0,0,1,.78.75v20.21a.76.76,0,0,1-.78.75.75.75,0,0,1-.74-.75Z" transform="translate(2.39 4.71)"/><path class="cls-21" d="M395.38,94.18h-6.54a.76.76,0,0,1,0-1.52h14.57a.76.76,0,0,1,0,1.52h-6.54v19.44a.75.75,0,1,1-1.49,0Z" transform="translate(2.39 4.71)"/><path class="cls-21" d="M473.84,108.76H464L462,113.87a.76.76,0,0,1-.71.5l-.28,0a.8.8,0,0,1-.43-1l7.53-20.12a.81.81,0,0,1,.74-.46.77.77,0,0,1,.75.46l7.53,20.12a.78.78,0,0,1-.4,1c-.12,0-.19,0-.28,0a.79.79,0,0,1-.71-.5Zm-9.33-1.52h8.78l-4.37-11.66Z" transform="translate(2.39 4.71)"/><path class="cls-21" d="M537.86,114.37h-.06a.76.76,0,0,1-.75-.75V93.41a.76.76,0,0,1,1.52,0v19.44H549a.76.76,0,1,1,0,1.52Z" transform="translate(2.39 4.71)"/></g></g></svg>