<?xml version="1.0" encoding="utf-8"?>
<svg id="master-artboard" viewBox="0 0 1400 980" version="1.1" xmlns="http://www.w3.org/2000/svg" x="0px" y="0px" width="1400px" height="980px" style="enable-background:new 0 0 1400 980;" xmlns:xlink="http://www.w3.org/1999/xlink">

<defs>
		<path d="M 0 0 H 1400 V 980 H 0 V 0 Z" id="XMLID_4_"/>
	</defs><clipPath id="XMLID_38_">
		<use style="overflow:visible;" xlink:href="#XMLID_4_"/>
	</clipPath><g id="XMLID_790_" transform="matrix(0.8341791839212486, -0.5514939398172735, 0.5514939398172735, 0.8341791839212486, -247.6695833155178, 441.1962958717048)" style="clip-path: url('#XMLID_38_');">
				<path d="M 211.399994 563.5 A 55 55 0 0 1 156.399994 618.5 A 55 55 0 0 1 101.399994 563.5 A 55 55 0 0 1 156.399994 508.5 A 55 55 0 0 1 211.399994 563.5 Z" id="XMLID_800_" class="st3" style="fill: rgb(186, 101, 9);"/>
				<path d="M 207.100006 564.799988 A 55 55 0 0 1 152.100006 619.799988 A 55 55 0 0 1 97.100006 564.799988 A 55 55 0 0 1 152.100006 509.799988 A 55 55 0 0 1 207.100006 564.799988 Z" id="XMLID_799_" class="st4" style="fill: rgb(247, 148, 30);"/>
				<path d="M 196.200005 564.799988 A 44.099998 44.099998 0 0 1 152.100006 608.899986 A 44.099998 44.099998 0 0 1 108.000008 564.799988 A 44.099998 44.099998 0 0 1 152.100006 520.699989 A 44.099998 44.099998 0 0 1 196.200005 564.799988 Z" id="XMLID_798_" class="st3" style="fill: rgb(186, 101, 9);"/>
				<path d="M 192.800007 564.799988 A 40.700001 40.700001 0 0 1 152.100006 605.499989 A 40.700001 40.700001 0 0 1 111.400005 564.799988 A 40.700001 40.700001 0 0 1 152.100006 524.099987 A 40.700001 40.700001 0 0 1 192.800007 564.799988 Z" id="XMLID_797_" class="st5" style="fill: rgb(251, 176, 64);"/>
				<path id="XMLID_796_" class="st6" d="M120.5,547.1L120.5,547.1c-2.2-1.2-4.9-0.3-5.9,2c-3.5,8.3-4.2,17.8-1.6,26.9&#10;&#9;&#9;&#9;&#9;&#9;c0.7,2.4,3.4,3.7,5.7,2.6h0c1.9-0.9,2.8-3,2.3-5c-2.1-7.3-1.5-14.8,1.3-21.4C123.1,550.3,122.3,548.1,120.5,547.1z" style="fill: rgb(255, 255, 255);"/>
				<path id="XMLID_795_" class="st4" d="M187.9,556.8L187.9,556.8c-2.2,0.3-3.8,2.3-3.6,4.5c1.2,11-3.4,22-12.1,28.9&#10;&#9;&#9;&#9;&#9;&#9;c-1.9,1.5-2.2,4.2-0.6,6l0,0c1.4,1.7,3.9,1.9,5.7,0.6c11-8.6,16.8-22.4,15.3-36.3C192.4,558.2,190.3,556.5,187.9,556.8z" style="fill: rgb(247, 148, 30);"/>
				<path id="XMLID_794_" class="st6" d="M125.6,540.3L125.6,540.3c1.6,1.3,3.9,1.3,5.4-0.1c0.7-0.6,1.4-1.2,2.2-1.7&#10;&#9;&#9;&#9;&#9;&#9;c1.6-1.1,2.2-3.2,1.4-5l0,0c-1-2.4-4.1-3.3-6.2-1.8c-1,0.7-2,1.5-2.9,2.3C123.6,535.6,123.7,538.6,125.6,540.3z" style="fill: rgb(255, 255, 255);"/>
				<g id="XMLID_791_">
					<path id="XMLID_792_" class="st3" d="M159.4,590.6l-2.4-5.7c-4.1,1.5-8.4,2.1-11.3,1.8l-1.2-7.8c3.1,0.3,7.2,0,11.1-1.6&#10;&#9;&#9;&#9;&#9;&#9;&#9;c3.4-1.5,5.2-3.8,4.2-6.2c-1-2.3-3.5-2.9-8.6-2.5c-7.3,0.6-13-0.5-15.5-6.3c-2.3-5.3-0.3-11,5.5-15l-2.4-5.7l5.9-2.5l2.3,5.3&#10;&#9;&#9;&#9;&#9;&#9;&#9;c4.1-1.5,7.1-1.9,9.5-1.7l1.2,7.5c-1.8,0-5.2-0.2-9.5,1.7c-3.9,1.7-4.4,3.9-3.7,5.6c0.8,2,3.5,2.3,9.4,2.1&#10;&#9;&#9;&#9;&#9;&#9;&#9;c8.2-0.5,12.5,1.5,14.8,6.9c2.3,5.3,0.5,11.5-5.9,15.6l2.6,6.1L159.4,590.6z" style="fill: rgb(186, 101, 9);"/>
				</g>
			</g><path d="M 645.299988 607.099976 A 55 55 0 0 1 590.299988 662.099976 A 55 55 0 0 1 535.299988 607.099976 A 55 55 0 0 1 590.299988 552.099976 A 55 55 0 0 1 645.299988 607.099976 Z" id="XMLID_811_" class="st3" style="fill: rgb(186, 101, 9); clip-path: url('#XMLID_38_');" transform="matrix(0.8341791839212486, -0.5514939398172735, 0.5514939398172735, 0.8341791839212486, -247.6695833155178, 441.1962958717048)"/><path d="M 642.400024 603.900024 A 55 55 0 0 1 587.400024 658.900024 A 55 55 0 0 1 532.400024 603.900024 A 55 55 0 0 1 587.400024 548.900024 A 55 55 0 0 1 642.400024 603.900024 Z" id="XMLID_810_" class="st4" style="fill: rgb(247, 148, 30); clip-path: url('#XMLID_38_');" transform="matrix(0.8341791839212486, -0.5514939398172735, 0.5514939398172735, 0.8341791839212486, -247.6695833155178, 441.1962958717048)"/><path d="M 631.500023 603.900024 A 44.099998 44.099998 0 0 1 587.400024 648.000023 A 44.099998 44.099998 0 0 1 543.300026 603.900024 A 44.099998 44.099998 0 0 1 587.400024 559.800026 A 44.099998 44.099998 0 0 1 631.500023 603.900024 Z" id="XMLID_809_" class="st3" style="fill: rgb(186, 101, 9); clip-path: url('#XMLID_38_');" transform="matrix(0.8341791839212486, -0.5514939398172735, 0.5514939398172735, 0.8341791839212486, -247.6695833155178, 441.1962958717048)"/><path d="M 628.100025 603.900024 A 40.700001 40.700001 0 0 1 587.400024 644.600025 A 40.700001 40.700001 0 0 1 546.700024 603.900024 A 40.700001 40.700001 0 0 1 587.400024 563.200024 A 40.700001 40.700001 0 0 1 628.100025 603.900024 Z" id="XMLID_808_" class="st5" style="fill: rgb(251, 176, 64); clip-path: url('#XMLID_38_');" transform="matrix(0.8341791839212486, -0.5514939398172735, 0.5514939398172735, 0.8341791839212486, -247.6695833155178, 441.1962958717048)"/><path id="XMLID_807_" class="st6" d="M589.1,567.6L589.1,567.6c0.1-2.5-1.9-4.5-4.4-4.4c-9,0.6-17.8,4.2-24.8,10.6&#10;&#9;&#9;&#9;&#9;&#9;c-1.9,1.7-1.8,4.7,0.2,6.3v0c1.6,1.3,3.9,1.2,5.5-0.2c5.6-5.1,12.6-7.9,19.8-8.4C587.4,571.4,589,569.7,589.1,567.6z" style="fill: rgb(255, 255, 255); clip-path: url('#XMLID_38_');" transform="matrix(0.8341791839212486, -0.5514939398172735, 0.5514939398172735, 0.8341791839212486, -247.6695833155178, 441.1962958717048)"/><path id="XMLID_806_" class="st4" d="M610.4,632.4L610.4,632.4c-1.3-1.9-3.8-2.4-5.7-1.2c-9.3,5.9-21.2,6.7-31.3,2&#10;&#9;&#9;&#9;&#9;&#9;c-2.1-1-4.7-0.1-5.6,2.1l0,0c-0.9,2,0,4.4,2,5.3c12.6,6,27.5,5.1,39.3-2.4C611.2,637,611.8,634.3,610.4,632.4z" style="fill: rgb(247, 148, 30); clip-path: url('#XMLID_38_');" transform="matrix(0.8341791839212486, -0.5514939398172735, 0.5514939398172735, 0.8341791839212486, -247.6695833155178, 441.1962958717048)"/><path id="XMLID_805_" class="st6" d="M597.5,569.2L597.5,569.2c-0.5,2,0.6,4,2.5,4.8c0.9,0.4,1.7,0.8,2.5,1.2&#10;&#9;&#9;&#9;&#9;&#9;c1.7,0.9,3.9,0.5,5.1-1l0,0c1.7-2,1.1-5.1-1.2-6.3c-1.1-0.6-2.2-1.1-3.4-1.6C600.8,565.4,598.1,566.7,597.5,569.2z" style="fill: rgb(255, 255, 255); clip-path: url('#XMLID_38_');" transform="matrix(0.8341791839212486, -0.5514939398172735, 0.5514939398172735, 0.8341791839212486, -247.6695833155178, 441.1962958717048)"/><path id="XMLID_803_" class="st3" d="M567.5,621.9l4-4.7c-3.2-3-5.7-6.6-6.6-9.3l6.4-4.5c1.1,2.9,3.2,6.4,6.4,9.2&#10;&#9;&#9;&#9;&#9;&#9;&#9;c2.8,2.4,5.7,3,7.4,1c1.6-1.9,1-4.4-1.6-8.8c-3.8-6.3-5.3-11.9-1.2-16.7c3.7-4.4,9.7-5.2,15.9-1.7l4-4.7l4.9,4.1l-3.7,4.4&#10;&#9;&#9;&#9;&#9;&#9;&#9;c3.2,3,4.8,5.6,5.8,7.8l-6.2,4.4c-0.8-1.6-2.1-4.7-5.7-7.8c-3.2-2.7-5.4-2.2-6.6-0.9c-1.4,1.6-0.5,4.2,2.3,9.3&#10;&#9;&#9;&#9;&#9;&#9;&#9;c4.1,7.1,4.2,11.9,0.4,16.3c-3.8,4.4-10.1,5.5-16.6,1.7l-4.3,5.1L567.5,621.9z" style="fill: rgb(186, 101, 9); clip-path: url('#XMLID_38_');" transform="matrix(0.8341791839212486, -0.5514939398172735, 0.5514939398172735, 0.8341791839212486, -247.6695833155178, 441.1962958717048)"/><path id="XMLID_20_" class="st7" d="M498.8,428.9c6.5,0.4,13.3,1,18.5,4.8c8.6,6.3,9.4,18.7,8.6,29.3c-0.7,9-1.9,18-3.7,26.8&#10;&#9;&#9;&#9;&#9;&#9;c-30.6,3.7-61.6,0.5-92.3-2.8c-9-1-18.1-2-26.5-5.3c-15.2-5.9-26.8-18.8-34.8-33.1c-1.1-2.1-2.3-4.2-2.4-6.6&#10;&#9;&#9;&#9;&#9;&#9;c-0.2-3.6,1.8-7,4.2-9.6c9.4-10,24.8-11.5,38.5-10C439.1,425.9,468.6,426.9,498.8,428.9z" style="fill: rgb(88, 88, 88); clip-path: url('#XMLID_38_');" transform="matrix(0.8341791839212486, -0.5514939398172735, 0.5514939398172735, 0.8341791839212486, -247.6695833155178, 441.1962958717048)"/><path id="XMLID_881_" class="st8" d="M420.7,444.5c6.7-4.7,14.2-8.2,22.1-10.5c-7.1,2.5-13.4,7.6-17.2,14.1&#10;&#9;&#9;&#9;&#9;&#9;c11.1,2.9,22.2,5.8,33.4,8.7c4.2,1.1,8.5,2.2,12.7,1.4c4.5-0.8,8.4-3.5,12.4-5.6c5.9-3,12.4-4.8,19-5.2&#10;&#9;&#9;&#9;&#9;&#9;c-10.1,7.9-16.1,20.8-15.7,33.6c0.2,5.2,1.3,10.3,0.7,15.4c-34.7-12.4-69.7-23.9-105-34.4c0.5-10.5,1-21.1,1.5-31.6&#10;&#9;&#9;&#9;&#9;&#9;c0.1-1.5,0.2-3,1-4.2c0.9-1.1,2.3-1.7,3.6-2.1c12.4-4,26.3-5.3,39.1-2.8c8.9,1.7,5,3.8,0.6,8.8c-2,2.2-3.7,4.6-5.2,7.1&#10;&#9;&#9;&#9;&#9;&#9;C423,438.9,421.9,443.7,420.7,444.5z" style="fill: rgb(61, 61, 61); clip-path: url('#XMLID_38_');" transform="matrix(0.8341791839212486, -0.5514939398172735, 0.5514939398172735, 0.8341791839212486, -247.6695833155178, 441.1962958717048)"/><path d="M 1261.0999755859375 294.5 L 1001.7000122070312 344.20001220703125 L 1049.699951171875 413.8999938964844 L 714.5 607.9000244140625 L 714.5 365.20001220703125 L -55 668.4000244140625 L -55 1073 L 598.7999877929688 584.5 L 598.7999877929688 801.5 L 1083.0999755859375 462.3999938964844 L 1124.199951171875 522.0999755859375 Z" id="XMLID_9_" class="st9" style="fill: rgb(241, 90, 41); clip-path: url('#XMLID_38_');" transform="matrix(0.8341791839212486, -0.5514939398172735, 0.5514939398172735, 0.8341791839212486, -247.6695833155178, 441.1962958717048)"/><path id="XMLID_21_" class="st10" d="M387.2,619.2c-3.2,3.4-4.2,8.3-4.1,13s0.9,9.3,0.8,13.9c-0.1,6.8-2.2,13.6-6.1,19.2&#10;&#9;&#9;&#9;&#9;&#9;c-1.9,0.7-3.8,0.5-5.7-0.2c-1.8-8.2-2.2-16.1-2-24.5c-1,0.3-2,0.6-3,1c-0.9-3.4-0.7-6.9-0.5-10.5c2.1-0.5,5.3-1.2,7.5-1&#10;&#9;&#9;&#9;&#9;&#9;c3-5.7,7.1-11.7,11.4-16.4C386,615.7,387.3,617.2,387.2,619.2z" style="fill: rgb(103, 52, 22); clip-path: url('#XMLID_38_');" transform="matrix(0.8341791839212486, -0.5514939398172735, 0.5514939398172735, 0.8341791839212486, -247.6695833155178, 441.1962958717048)"/><path id="XMLID_19_" class="st11" d="M389.4,445.3c22.5,5.2,44.9,10.3,67.4,15.5c11.6,2.7,25.2,7.2,28.1,18.8&#10;&#9;&#9;&#9;&#9;&#9;c1.2,4.9,0.1,10.1-1.4,14.9c-2.5,7.9-6.2,15.5-10.2,22.7C466,530,457.5,542,448.9,554c-11.9,16.8-23.9,33.5-35.8,50.3&#10;&#9;&#9;&#9;&#9;&#9;c-6.1,8.6-10.9,18.5-17.8,26.5c-8.2,0-16.2-4.7-20.3-11.7c20.5-28.3,28.5-65.5,43.7-97c-17.6,0.4-35.2,1.5-52.7,3.4&#10;&#9;&#9;&#9;&#9;&#9;c-9.6,1-19.6,2.2-28.5-1.6c-8.3-3.6-14.4-11.3-17.6-19.8s-3.7-17.8-3.3-26.9c0.2-5,1.1-10.6,5.4-13.3&#10;&#9;&#9;&#9;&#9;&#9;C341.5,451.8,366.8,449.5,389.4,445.3z" style="fill: rgb(104, 104, 104); clip-path: url('#XMLID_38_');" transform="matrix(0.8341791839212486, -0.5514939398172735, 0.5514939398172735, 0.8341791839212486, -247.6695833155178, 441.1962958717048)"/><path id="XMLID_943_" class="st12" d="M253.1,431c4.8-2.4,10.5-1.1,15.6,0.5c5.1,1.6,10.5,3.4,15.7,1.9&#10;&#9;&#9;&#9;&#9;&#9;&#9;c-2.9,4.7-6.1,8.9-9,13.6c-3.2,0.6-7,0-10.1-1.1c-3.1-1.1-6.1-2.5-9.4-3.2c-3.2-0.6-6.8-0.5-9.5,1.4L253.1,431z" style="fill: rgb(142, 214, 29); clip-path: url('#XMLID_38_');" transform="matrix(0.8341791839212486, -0.5514939398172735, 0.5514939398172735, 0.8341791839212486, -247.6695833155178, 441.1962958717048)"/><path id="XMLID_940_" class="st12" d="M282,452.2c-5.2,3.3-12.4,3-17.4-0.6c-0.2,3.7,0.2,7.7,0,11.4c5.9,4.6,15.5,5.1,21.8,1.1&#10;&#9;&#9;&#9;&#9;&#9;&#9;C285.3,460.4,283.2,455.7,282,452.2z" style="fill: rgb(142, 214, 29); clip-path: url('#XMLID_38_');" transform="matrix(0.8341791839212486, -0.5514939398172735, 0.5514939398172735, 0.8341791839212486, -247.6695833155178, 441.1962958717048)"/><path id="XMLID_937_" class="st12" d="M238.8,493.1c-0.5,5.9-1.1,12-1.6,17.9c4.7,0.6,9.1,1.6,13.8,2.2&#10;&#9;&#9;&#9;&#9;&#9;&#9;c-0.1-5.7-0.1-11.4-0.2-17.1C247.1,495.6,242.6,493.7,238.8,493.1z" style="fill: rgb(142, 214, 29); clip-path: url('#XMLID_38_');" transform="matrix(0.8341791839212486, -0.5514939398172735, 0.5514939398172735, 0.8341791839212486, -247.6695833155178, 441.1962958717048)"/><path id="XMLID_934_" class="st13" d="M264.8,440.4l9,0.4l5.4,9.9l-25.2,51.3c0,0-5.5-4.2-18.5,1.1c0,0-18.9-36.1-17.8-36.2&#10;&#9;&#9;&#9;&#9;&#9;&#9;C219,466.9,264.8,440.4,264.8,440.4z" style="fill: rgb(48, 25, 16); clip-path: url('#XMLID_38_');" transform="matrix(0.8341791839212486, -0.5514939398172735, 0.5514939398172735, 0.8341791839212486, -247.6695833155178, 441.1962958717048)"/><path d="M 261.5 450.29998779296875 L 235.60000610351562 503.20001220703125 L 155.89999389648438 448.1000061035156 L 198.39999389648438 408.29998779296875 Z" id="XMLID_931_" class="st14" style="fill: rgb(79, 46, 31); clip-path: url('#XMLID_38_');" transform="matrix(0.8341791839212486, -0.5514939398172735, 0.5514939398172735, 0.8341791839212486, -247.6695833155178, 441.1962958717048)"/><path id="XMLID_928_" class="st13" d="M187,418.9l6.2,26.2c1,4,4.4,7,8.5,7.4l55.9,5.6L187,418.9z" style="fill: rgb(48, 25, 16); clip-path: url('#XMLID_38_');" transform="matrix(0.8341791839212486, -0.5514939398172735, 0.5514939398172735, 0.8341791839212486, -247.6695833155178, 441.1962958717048)"/><path id="XMLID_925_" class="st12" d="M230.4,449.1c-0.5,5.9-1.1,12-1.6,17.9c4.7,0.6,9.1,1.6,13.8,2.2&#10;&#9;&#9;&#9;&#9;&#9;&#9;c-0.1-5.7-0.1-11.4-0.2-17.1C238.7,451.5,234.1,449.7,230.4,449.1z" style="fill: rgb(142, 214, 29); clip-path: url('#XMLID_38_');" transform="matrix(0.8341791839212486, -0.5514939398172735, 0.5514939398172735, 0.8341791839212486, -247.6695833155178, 441.1962958717048)"/><path id="XMLID_922_" class="st12" d="M196.9,435.6c-5.2,3.3-12.4,3-17.4-0.6c-0.2,3.7,0.2,7.7,0,11.4&#10;&#9;&#9;&#9;&#9;&#9;&#9;c5.9,4.6,15.5,5.1,21.8,1.1C200.2,443.8,198,439.1,196.9,435.6z" style="fill: rgb(142, 214, 29); clip-path: url('#XMLID_38_');" transform="matrix(0.8341791839212486, -0.5514939398172735, 0.5514939398172735, 0.8341791839212486, -247.6695833155178, 441.1962958717048)"/><path id="XMLID_921_" class="st10" d="M246.2,408.1l11.2,6.1l7.1,4.6c1.8,1.2,2.6,3.5,1.8,5.5l-4.5,12.1l-6.1-3.3l4-8.7&#10;&#9;&#9;&#9;&#9;&#9;&#9;c1-2.2,0.2-4.8-1.9-6l-17.5-10l-12.2,8.1l-6.3-5.2l16.5-7.2L246.2,408.1z" style="fill: rgb(103, 52, 22); clip-path: url('#XMLID_38_');" transform="matrix(0.8341791839212486, -0.5514939398172735, 0.5514939398172735, 0.8341791839212486, -247.6695833155178, 441.1962958717048)"/><path id="XMLID_920_" class="st15" d="M251.7,391.1c3.1,5.3,6.2,10.7,9.4,16c-1.3,2.5-2.4,4.7-3.7,7.1c-1-0.6-2.2-1.2-3.3-1.8&#10;&#9;&#9;&#9;&#9;&#9;&#9;c-0.4,2.8-1.1,5.4-1.6,8.2c-0.1,0.4-0.1,0.8-0.4,1.2c-0.5,0.8-1.7,1-2.7,0.7c-2.1-0.5-3.7-2.6-3.7-4.7&#10;&#9;&#9;&#9;&#9;&#9;&#9;c-3.9-0.8-7.5-2.5-9.7-5.9c0.4-4.7,1.2-9.2,3.1-13.5c-1-4.1-1.8-8.2-2.8-12.4C241.7,383.9,248.8,386.1,251.7,391.1z" style="fill: rgb(247, 183, 148); clip-path: url('#XMLID_38_');" transform="matrix(0.8341791839212486, -0.5514939398172735, 0.5514939398172735, 0.8341791839212486, -247.6695833155178, 441.1962958717048)"/><path id="XMLID_917_" class="st16" d="M273.9,440.8L207.2,398l-21,18.3l9.4,28.6c1.1,3.3,4,5.7,7.5,6.2l56.9,7.3&#10;&#9;&#9;&#9;&#9;&#9;&#9;c0,0,9.7-17.5,11.7-16.9C273.7,442.2,273.9,440.8,273.9,440.8z" style="fill: rgb(110, 81, 73); clip-path: url('#XMLID_38_');" transform="matrix(0.8341791839212486, -0.5514939398172735, 0.5514939398172735, 0.8341791839212486, -247.6695833155178, 441.1962958717048)"/><path d="M 222.6999969482422 434.70001220703125 L 203.89999389648438 423.3999938964844 L 200.10000610351562 427.79998779296875 L 219 439.29998779296875 Z" id="XMLID_916_" class="st13" style="fill: rgb(48, 25, 16); clip-path: url('#XMLID_38_');" transform="matrix(0.8341791839212486, -0.5514939398172735, 0.5514939398172735, 0.8341791839212486, -247.6695833155178, 441.1962958717048)"/><path id="XMLID_912_" class="st12" d="M248.2,475.1c4.1-1.6,8.6-2.8,12.7-4.5c0.2,4.1,2.9,7.7,6.2,10.1c3.3,2.4,7.2,3.8,11,5.1&#10;&#9;&#9;&#9;&#9;&#9;&#9;c-3.5,2.5-6.8,5.1-10.2,7.6C259.8,489.9,252.6,482.7,248.2,475.1z" style="fill: rgb(142, 214, 29); clip-path: url('#XMLID_38_');" transform="matrix(0.8341791839212486, -0.5514939398172735, 0.5514939398172735, 0.8341791839212486, -247.6695833155178, 441.1962958717048)"/><path id="XMLID_909_" class="st12" d="M160.7,409.9c4.1-3,8.2-5.4,12.3-8.4c-1.1,5.1-0.3,10.5,2.1,15&#10;&#9;&#9;&#9;&#9;&#9;&#9;c2.4,4.6,6.5,8.3,11.2,10.2c-4.9,1.6-9.9,3.7-14.9,5.3c-6.1-5-10-12.8-11.2-20.7L160.7,409.9z" style="fill: rgb(142, 214, 29); clip-path: url('#XMLID_38_');" transform="matrix(0.8341791839212486, -0.5514939398172735, 0.5514939398172735, 0.8341791839212486, -247.6695833155178, 441.1962958717048)"/><path id="XMLID_906_" class="st12" d="M210.2,511.6c4.1-3,8.2-5.4,12.3-8.4c-1.1,5.1-0.3,10.5,2.1,15&#10;&#9;&#9;&#9;&#9;&#9;&#9;c2.4,4.6,6.5,8.3,11.2,10.2c-4.9,1.6-9.9,3.7-14.9,5.3c-6.1-5-10-12.8-11.2-20.7L210.2,511.6z" style="fill: rgb(142, 214, 29); clip-path: url('#XMLID_38_');" transform="matrix(0.8341791839212486, -0.5514939398172735, 0.5514939398172735, 0.8341791839212486, -247.6695833155178, 441.1962958717048)"/><path id="XMLID_893_" class="st12" d="M130.5,428.1c4.8-2.4,10.5-1.1,15.6,0.5s10.5,3.4,15.7,1.9c-2.9,4.7-6.1,8.9-9,13.6&#10;&#9;&#9;&#9;&#9;&#9;&#9;c-3.2,0.6-7,0-10.1-1.1c-3.1-1.1-6.1-2.5-9.4-3.2c-3.2-0.6-6.8-0.5-9.5,1.4L130.5,428.1z" style="fill: rgb(142, 214, 29); clip-path: url('#XMLID_38_');" transform="matrix(0.8341791839212486, -0.5514939398172735, 0.5514939398172735, 0.8341791839212486, -247.6695833155178, 441.1962958717048)"/><path id="XMLID_875_" class="st12" d="M105.3,442.5c3.2,3.3,5.1,7.6,7.5,11.6c2.4,3.9,5.6,7.8,10,9c-3.6,3.7-6.7,7.4-10.3,11.1&#10;&#9;&#9;&#9;&#9;&#9;&#9;c-2.7-1-5.1-3-7-5.2c-1.6-1.9-2.9-4.1-4.1-6.3c-1.2-2.1-2.3-4.2-3.5-6.4L105.3,442.5z" style="fill: rgb(142, 214, 29); clip-path: url('#XMLID_38_');" transform="matrix(0.8341791839212486, -0.5514939398172735, 0.5514939398172735, 0.8341791839212486, -247.6695833155178, 441.1962958717048)"/><path id="XMLID_15_" class="st12" d="M120.5,489.7c1.9-4.1,3.7-8.5,5.6-12.6c9.2,2.2,19.1,1.6,28.1-1.2&#10;&#9;&#9;&#9;&#9;&#9;&#9;c-1.3,4.6-2.5,9.2-3.8,13.9C141.1,490.9,129.9,491,120.5,489.7z" style="fill: rgb(142, 214, 29); clip-path: url('#XMLID_38_');" transform="matrix(0.8341791839212486, -0.5514939398172735, 0.5514939398172735, 0.8341791839212486, -247.6695833155178, 441.1962958717048)"/><path id="XMLID_22_" class="st17" d="M232.5,380.7c-0.5,4.5-0.2,9.1,0.8,13.5c7-1,14.6-2.8,21.6-3.8c-1.1-8-2.9-17.2-3.9-25.2&#10;&#9;&#9;&#9;&#9;&#9;C245.9,369.5,238.1,377.1,232.5,380.7z" style="fill: rgb(244, 247, 249); clip-path: url('#XMLID_38_');" transform="matrix(0.8341791839212486, -0.5514939398172735, 0.5514939398172735, 0.8341791839212486, -247.6695833155178, 441.1962958717048)"/><linearGradient id="XMLID_39_" gradientUnits="userSpaceOnUse" x1="641.2463" y1="225.0553" x2="654.3417" y2="225.0553" style="clip-path: url('#XMLID_38_');">
					<stop offset="0" style="stop-color:#E97695"/>
					<stop offset="1" style="stop-color:#F7B794"/>
				</linearGradient><path id="XMLID_26_" class="st18" d="M641.4,217.4c6.7-5.3,16.7,8.6,11.5,14.5C645.9,239.8,640.2,222.9,641.4,217.4z" style="fill: url('#XMLID_39_'); clip-path: url('#XMLID_38_');" transform="matrix(0.8341791839212486, -0.5514939398172735, 0.5514939398172735, 0.8341791839212486, -247.6695833155178, 441.1962958717048)"/><linearGradient id="XMLID_40_" gradientUnits="userSpaceOnUse" x1="635.8192" y1="226.0074" x2="647.1669" y2="226.0074" style="clip-path: url('#XMLID_38_');">
					<stop offset="0" style="stop-color:#E97695"/>
					<stop offset="1" style="stop-color:#F7B794"/>
				</linearGradient><path id="XMLID_25_" class="st19" d="M640.1,218c8.4-1,15.9,11.9,6,15.4C634,237.8,633.4,217.5,640.1,218z" style="fill: url('#XMLID_40_'); clip-path: url('#XMLID_38_');" transform="matrix(0.8341791839212486, -0.5514939398172735, 0.5514939398172735, 0.8341791839212486, -247.6695833155178, 441.1962958717048)"/><path id="XMLID_24_" class="st15" d="M612.1,227.7c2.9-1,5.5-3.1,8.3-4.3c5.1-2.3,9.9-4.6,14.7-7.3c5.7-3.3,12.2-6.4,18.3-8.7&#10;&#9;&#9;&#9;&#9;&#9;c2.1-0.8,9.3-2.7,8.6,1.3c-0.5,2.8-9.2,5.9-11.3,7c-3.9,2.1-9.9,3.7-12.7,7.3c-3,4,3,4.7,6.7,5.5c2.9,0.6,12.3,1.2,11.7,5.9&#10;&#9;&#9;&#9;&#9;&#9;c-0.6,5-9.5,2.4-12.3,2.4c-6.7-0.1-10.9,8-18.4,8c-6.8,0-10.3-5.3-16.7,0.6C607.5,239.6,608.2,232.1,612.1,227.7z" style="fill: rgb(247, 183, 148); clip-path: url('#XMLID_38_');" transform="matrix(0.8341791839212486, -0.5514939398172735, 0.5514939398172735, 0.8341791839212486, -247.6695833155178, 441.1962958717048)"/><path id="XMLID_23_" class="st17" d="M598.8,256.5c5.4-2.8,11.8-5.6,17.2-8.3c0-8.2-0.5-16.5-0.2-24.6c-5.3,2.5-10.7,5-16,7.5&#10;&#9;&#9;&#9;&#9;&#9;C598.9,239,598.9,248.5,598.8,256.5z" style="fill: rgb(244, 247, 249); clip-path: url('#XMLID_38_');" transform="matrix(0.8341791839212486, -0.5514939398172735, 0.5514939398172735, 0.8341791839212486, -247.6695833155178, 441.1962958717048)"/><path id="XMLID_18_" class="st20" d="M473.4,426.8c-12.3,7.1-27.6,5.5-41.7,3.7c-11-1.4-20.5-1.8-31.5-3.2&#10;&#9;&#9;&#9;&#9;&#9;c2.3,11.4,5.1,23.3,9.3,34.2c-13.9,13.5-28.5,26.4-43.6,38.6c-9.6,7.8-19.2,14.8-31.3,17.4c-1.9-0.8-2.8-3.1-3.4-5.1&#10;&#9;&#9;&#9;&#9;&#9;c-3.8-12.7-6.6-25.7-8.1-38.9c-8.1,11.2-15.4,23.3-19.1,36.6c-1.2-33.9,6-67.7,17-99.8c2.8-8.2,5.8-16.3,7.5-24.8&#10;&#9;&#9;&#9;&#9;&#9;c2.3-11.7,1.8-23.7,1.4-35.6c-0.5-14.6-0.5-28.1-1.1-42.7c-18.6,4.9-37.2,12-51.7,24.6c-14.6,12.6-24.9,31.3-23.2,50.5&#10;&#9;&#9;&#9;&#9;&#9;c-7.8,1.2-15.3,2.6-23,5c-1.4-3.4-1.6-7.8-2-11.7c-1.2-11.7-2.6-23.4-2.5-35.2c0.1-17.9,1.3-40,17.6-51.1&#10;&#9;&#9;&#9;&#9;&#9;c14.1-9.6,27.9-12.6,43.8-17.5c12.5-3.9,26.4-9.1,39.1-11c1.1-2.3,2.1-5,4-6.5c1.7-1.3,9.9-1,13.2-1c7-0.1,13.8-0.5,20.8-0.5&#10;&#9;&#9;&#9;&#9;&#9;c9.6,0,19-0.5,28.6-0.5c26.1,0,55.1,9.1,81.2,8.6c6.6-0.1,13.3-0.9,19.8-1.8c38.8-5.5,76.8-17,112.2-33.9&#10;&#9;&#9;&#9;&#9;&#9;c-0.3,11.6,0.2,22.8-0.1,34.3c-41.9,18.3-83.4,35.7-125.3,54c-4.8,2.1-9.7,4.3-13,8.4c-19.6,24.7-30.7,55.9-35.7,87.1&#10;&#9;&#9;&#9;&#9;&#9;c-0.3,1.7-0.5,3.5,0.5,4.9c0.9,1.3,2.6,1.9,4.1,2.3C449.2,419.4,461.3,423.4,473.4,426.8z" style="fill: rgb(73, 73, 74); clip-path: url('#XMLID_38_');" transform="matrix(0.8341791839212486, -0.5514939398172735, 0.5514939398172735, 0.8341791839212486, -247.6695833155178, 441.1962958717048)"/><path id="XMLID_877_" class="st17" d="M373,294c4.6,25.3,9.2,50.8,18.9,74.5c2.8-14.5,6.4-28.9,10.7-43.1&#10;&#9;&#9;&#9;&#9;&#9;c2.6-8.7,5.5-17.3,7.4-26.2c1.8-8.2,2.8-16.6,3.8-25c0.8-6.8,1.6-13.5,2.4-20.3c-7.7-1-15.3-1.8-22.7-1.8&#10;&#9;&#9;&#9;&#9;&#9;c-8.3,0-16.5,0.4-24.7,0.5C368,266.4,370.5,280.3,373,294z" style="fill: rgb(244, 247, 249); clip-path: url('#XMLID_38_');" transform="matrix(0.8341791839212486, -0.5514939398172735, 0.5514939398172735, 0.8341791839212486, -247.6695833155178, 441.1962958717048)"/><path id="XMLID_882_" class="st21" d="M366.9,292.2c-3.1,10.6-6.8,21.5-11.4,31.6c9.3,22,21.9,42.8,38,60.4&#10;&#9;&#9;&#9;&#9;&#9;c13-15.1,29-35.7,37.1-53.9c0,0-6.5-22.5-8.5-35.5c4.5,1.9,8.1,2.9,12.3,5.5c0-9.5-2.4-18.9-4.8-28.1c-1.5-5.6-3-11.3-4.5-16.9&#10;&#9;&#9;&#9;&#9;&#9;c-3-0.5-6-0.9-9-1.3c-0.8,6.8-1.6,13.5-2.4,20.3c-1,8.4-2,16.8-3.8,25c-1.9,8.9-4.8,17.5-7.4,26.2c-4.3,14.2-7.8,28.6-10.7,43.1&#10;&#9;&#9;&#9;&#9;&#9;c-9.7-23.8-14.3-49.3-18.9-74.5c-2.5-13.6-4.9-27.6-4.3-41.3c-1.3,0-2.5,0-3.8,0c-1.2,0-2.3,0-3.5,0c-4,12.8-8,25.6-12,38.4&#10;&#9;&#9;&#9;&#9;&#9;C355.1,289.7,361.3,290,366.9,292.2z" style="fill: rgb(107, 107, 107); clip-path: url('#XMLID_38_');" transform="matrix(0.8341791839212486, -0.5514939398172735, 0.5514939398172735, 0.8341791839212486, -247.6695833155178, 441.1962958717048)"/><path id="XMLID_17_" class="st15" d="M401.9,230.7c-2.4,10.9-9.4,23-21,25.5c1,15.3,5.2,36.1,13,49.3&#10;&#9;&#9;&#9;&#9;&#9;c-0.6-8.7,6.1-20.4,10.9-27.2c6.3-8.9,17.8-11.2,25.1-18.1C418,251.5,410,242.3,401.9,230.7z" style="fill: rgb(247, 183, 148); clip-path: url('#XMLID_38_');" transform="matrix(0.8341791839212486, -0.5514939398172735, 0.5514939398172735, 0.8341791839212486, -247.6695833155178, 441.1962958717048)"/><linearGradient id="XMLID_41_" gradientUnits="userSpaceOnUse" x1="394.2984" y1="253.8025" x2="429.9321" y2="253.8025" style="clip-path: url('#XMLID_38_');">
					<stop offset="0" style="stop-color:#F7B794"/>
					<stop offset="1" style="stop-color:#E97695"/>
				</linearGradient><path id="XMLID_900_" class="st22" d="M429.9,260.2c-12-8.8-19.9-18-28-29.6c-1.3,5.7-3.8,11.7-7.6,16.6&#10;&#9;&#9;&#9;&#9;&#9;c2.2,10.4,6.1,20.5,11.7,29.7C412.5,269.2,423,266.8,429.9,260.2z" style="fill: url('#XMLID_41_'); clip-path: url('#XMLID_38_');" transform="matrix(0.8341791839212486, -0.5514939398172735, 0.5514939398172735, 0.8341791839212486, -247.6695833155178, 441.1962958717048)"/><path id="XMLID_6_" class="st23" d="M372.9,208.7c2.6,16.3,15.9,30.8,29.9,37.5c-1.3-8.8-7.1-18.4-10-26.9&#10;&#9;&#9;&#9;&#9;&#9;c-1.7-5-3.5-11.9-7.7-15.6C379.8,199,373.4,202.3,372.9,208.7z" style="fill: rgb(124, 54, 24); clip-path: url('#XMLID_38_');" transform="matrix(0.8341791839212486, -0.5514939398172735, 0.5514939398172735, 0.8341791839212486, -247.6695833155178, 441.1962958717048)"/><path id="XMLID_7_" class="st15" d="M480.9,171.7c-1.5,20.5-9.3,40.6-11,61.1c-0.9,10.7,0.7,27.8-8.7,35.9&#10;&#9;&#9;&#9;&#9;&#9;c-11.7,10-33.1,1.2-44-5.5c-10.4-6.3-19.9-17.7-24.2-29c-7.9-20.9-14.9-45.7-3.3-67.1c14.8-27.1,47.2-33.6,75.2-25.1&#10;&#9;&#9;&#9;&#9;&#9;C479.7,146.5,483.9,157.3,480.9,171.7z" style="fill: rgb(247, 183, 148); clip-path: url('#XMLID_38_');" transform="matrix(0.8341791839212486, -0.5514939398172735, 0.5514939398172735, 0.8341791839212486, -247.6695833155178, 441.1962958717048)"/><path id="XMLID_8_" class="st23" d="M413.9,154.7c2.1,7.2,8.1,14.5,14,19c3.4,2.6,8.8,4.3,11.4,7.4c-4.8-5.6-9.8-17-8.9-23.9&#10;&#9;&#9;&#9;&#9;&#9;c2.3,5.3,10.2,12,15,15.6c5.6,4.3,13,6.7,19.6,9c6,2.1,14,3.5,20.4,2.4c7-1.3,10.1-8.8,12.9-14.5c0.9,4.9,1.1,10.1-2,14.4&#10;&#9;&#9;&#9;&#9;&#9;c4.3-6.1,8-10.4,8-18.3c0-9.8-2.4-21.3-7.7-29.6c-9-14.3-27.9-19.9-43.1-24.9c-25.9-8.5-70.7-1.5-68.7,34.4&#10;&#9;&#9;&#9;&#9;&#9;c-2.2-6.3-7-13-13.4-16.8c0.8,5.7,6.2,10.7,7.5,16.7c-5.4-4.4-8-8.7-15.5-8.8c4.8,3.3,7.4,8.7,10.4,13.5&#10;&#9;&#9;&#9;&#9;&#9;c-8.2-0.6-16,3.5-19.1,11.1c-4.1,9.8,2.1,24.1,8.4,31.7c7.5,9,17.5,13.8,25.7,21.7c3.7,3.6,6.4,8.3,11.1,11&#10;&#9;&#9;&#9;&#9;&#9;c1.5-6.2,0.1-14,0.5-20.5c0.4-6.2,1.2-12.4,1.6-18.9C411.9,183,417.9,166.8,413.9,154.7z" style="fill: rgb(124, 54, 24); clip-path: url('#XMLID_38_');" transform="matrix(0.8341791839212486, -0.5514939398172735, 0.5514939398172735, 0.8341791839212486, -247.6695833155178, 441.1962958717048)"/><path id="XMLID_10_" class="st24" d="M424.4,193.2c10.3,0,21.1,2.4,28.8,9.5L424.4,193.2z" style="fill: rgb(18, 12, 0); clip-path: url('#XMLID_38_');" transform="matrix(0.8341791839212486, -0.5514939398172735, 0.5514939398172735, 0.8341791839212486, -247.6695833155178, 441.1962958717048)"/><path id="XMLID_11_" class="st24" d="M462.7,200.4c0.1-3.6,3.2-8.7,5.7-11.3c1.2-1.2,6.9-5.6,7.8-2.7L462.7,200.4z" style="fill: rgb(18, 12, 0); clip-path: url('#XMLID_38_');" transform="matrix(0.8341791839212486, -0.5514939398172735, 0.5514939398172735, 0.8341791839212486, -247.6695833155178, 441.1962958717048)"/><path id="XMLID_12_" class="st24" d="M443.3,204.1c-0.8,3.2-0.4,5.7,0.9,5.7s3-2.6,3.8-5.7c0.8-3.2,0.4-5.7-0.9-5.7&#10;&#9;&#9;&#9;&#9;&#9;C445.8,198.4,444.1,200.9,443.3,204.1z" style="fill: rgb(18, 12, 0); clip-path: url('#XMLID_38_');" transform="matrix(0.8341791839212486, -0.5514939398172735, 0.5514939398172735, 0.8341791839212486, -247.6695833155178, 441.1962958717048)"/><path d="M 469.400006 199 A 2.3 5 0 0 1 467.100006 204 A 2.3 5 0 0 1 464.800006 199 A 2.3 5 0 0 1 467.100006 194 A 2.3 5 0 0 1 469.400006 199 Z" id="XMLID_13_" class="st24" style="fill: rgb(18, 12, 0); clip-path: url('#XMLID_38_');" transform="matrix(0.8341791839212486, -0.5514939398172735, 0.5514939398172735, 0.8341791839212486, -247.6695833155178, 441.1962958717048)"/><linearGradient id="XMLID_42_" gradientUnits="userSpaceOnUse" x1="452.4595" y1="207.7726" x2="476.0183" y2="219.392" style="clip-path: url('#XMLID_38_');">
					<stop offset="0" style="stop-color:#F7B794"/>
					<stop offset="1" style="stop-color:#E97695"/>
				</linearGradient><path id="XMLID_14_" class="st25" d="M459.9,197.4c-0.3,5.2,2.2,9.5,6.8,11.8c3.5,1.7,7.9,2.6,9.4,6.7&#10;&#9;&#9;&#9;&#9;&#9;c4.9,12.8-20.1,12.6-24.5,3.2C448.2,211.9,453,202.5,459.9,197.4z" style="fill: url('#XMLID_42_'); clip-path: url('#XMLID_38_');" transform="matrix(0.8341791839212486, -0.5514939398172735, 0.5514939398172735, 0.8341791839212486, -247.6695833155178, 441.1962958717048)"/><path id="XMLID_36_" class="st6" d="M461.1,203.8c0,0,0.3,0.5,0.8,1.2c0.6,0.8,1.5,1.8,2.8,2.7c0.6,0.5,1.4,0.9,2.2,1.3&#10;&#9;&#9;&#9;&#9;&#9;c0.9,0.4,1.7,0.7,2.7,1.1c0.9,0.4,1.9,0.8,2.9,1.3c1,0.5,1.9,1.2,2.7,2.1c0.8,0.9,1.3,1.9,1.6,3c0.2,0.5,0.3,1.1,0.4,1.6&#10;&#9;&#9;&#9;&#9;&#9;c0,0.6,0.1,1.1,0,1.6c-0.1,1.1-0.5,2.1-1.2,2.9c-0.6,0.8-1.4,1.4-2.1,1.8c-0.7,0.4-1.4,0.7-2.1,0.9c-0.6,0.2-1.2,0.3-1.7,0.4&#10;&#9;&#9;&#9;&#9;&#9;c-0.5,0.1-0.8,0.1-1.1,0.1c-0.3,0-0.4,0-0.4,0s0.1,0,0.4-0.1c0.2-0.1,0.6-0.1,1.1-0.3c0.5-0.1,1-0.3,1.6-0.5&#10;&#9;&#9;&#9;&#9;&#9;c0.6-0.3,1.3-0.6,1.9-1c0.6-0.4,1.3-1,1.8-1.7c0.5-0.7,0.8-1.6,0.9-2.5c0-0.5,0-1,0-1.4c-0.1-0.5-0.2-0.9-0.4-1.5&#10;&#9;&#9;&#9;&#9;&#9;c-0.3-1-0.8-1.9-1.5-2.6c-1.3-1.5-3.3-2.4-5.2-3.2c-0.9-0.4-1.8-0.8-2.7-1.3c-0.9-0.4-1.6-1-2.2-1.5c-1.3-1-2.1-2.2-2.6-3&#10;&#9;&#9;&#9;&#9;&#9;c-0.2-0.4-0.4-0.8-0.5-1C461.2,203.9,461.1,203.8,461.1,203.8z" style="fill: rgb(255, 255, 255); clip-path: url('#XMLID_38_');" transform="matrix(0.8341791839212486, -0.5514939398172735, 0.5514939398172735, 0.8341791839212486, -247.6695833155178, 441.1962958717048)"/><path id="XMLID_16_" class="st6" d="M461.7,238.9c-3.9-0.8-8.4-4.3-12-6.1c-5.7-2.9-10.3-7-15.7-10.4c-1.4-0.9-3.8-3.2-5.3-2.9&#10;&#9;&#9;&#9;&#9;&#9;c-3.9,0.9-4.8,8.6-4.5,11.6c1.1,10.2,10.7,13.2,19.5,13.9C450.1,245.7,458.3,244.4,461.7,238.9z" style="fill: rgb(255, 255, 255); clip-path: url('#XMLID_38_');" transform="matrix(0.8341791839212486, -0.5514939398172735, 0.5514939398172735, 0.8341791839212486, -247.6695833155178, 441.1962958717048)"/><path id="XMLID_879_" class="st26" d="M433.6,235.9c-2.6-1.3-7-4.9-7.7-8c-0.4-1.9,0.4-5.1,1.6-7.8c-2.9,2-3.5,8.4-3.2,11&#10;&#9;&#9;&#9;&#9;&#9;&#9;c0.3,3.1,1.4,5.5,3,7.4c0.1-1.9,0.2-3.8,0.2-5.6C429.4,233.8,431.5,235.2,433.6,235.9z" style="fill: rgb(186, 46, 73); clip-path: url('#XMLID_38_');" transform="matrix(0.8341791839212486, -0.5514939398172735, 0.5514939398172735, 0.8341791839212486, -247.6695833155178, 441.1962958717048)"/><path id="XMLID_880_" class="st26" d="M461.7,238.9c-1.8-0.4-3.7-1.3-5.6-2.4c-0.6,2.3-1,4.9-1.3,7.5&#10;&#9;&#9;&#9;&#9;&#9;&#9;C457.7,243,460.2,241.4,461.7,238.9z" style="fill: rgb(186, 46, 73); clip-path: url('#XMLID_38_');" transform="matrix(0.8341791839212486, -0.5514939398172735, 0.5514939398172735, 0.8341791839212486, -247.6695833155178, 441.1962958717048)"/><linearGradient id="XMLID_43_" gradientUnits="userSpaceOnUse" x1="648.0068" y1="226.7045" x2="656.2012" y2="226.7045" style="clip-path: url('#XMLID_38_');">
					<stop offset="0" style="stop-color:#E97695"/>
					<stop offset="1" style="stop-color:#F7B794"/>
				</linearGradient><path id="XMLID_27_" class="st27" d="M650.1,219.4c3.6,1.5,5.6,2.2,6,6.5c0.3,2.7,0.3,5.8-2,7.5&#10;&#9;&#9;&#9;&#9;&#9;C648.2,237.5,646,223.1,650.1,219.4z" style="fill: url('#XMLID_43_'); clip-path: url('#XMLID_38_');" transform="matrix(0.8341791839212486, -0.5514939398172735, 0.5514939398172735, 0.8341791839212486, -247.6695833155178, 441.1962958717048)"/><path id="XMLID_30_" class="st8" d="M344.4,410.8c28.1-6.3,57.8-5,85.2,3.7L344.4,410.8z" style="fill: rgb(61, 61, 61); clip-path: url('#XMLID_38_');" transform="matrix(0.8341791839212486, -0.5514939398172735, 0.5514939398172735, 0.8341791839212486, -247.6695833155178, 441.1962958717048)"/><path id="XMLID_31_" class="st8" d="M356.9,428.1c18.8-9.7,40.5-13.5,61.5-10.9L356.9,428.1z" style="fill: rgb(61, 61, 61); clip-path: url('#XMLID_38_');" transform="matrix(0.8341791839212486, -0.5514939398172735, 0.5514939398172735, 0.8341791839212486, -247.6695833155178, 441.1962958717048)"/><path id="XMLID_32_" class="st8" d="M376.3,379.6c22.6,4.6,43.2,17,56.7,34.1L376.3,379.6z" style="fill: rgb(61, 61, 61); clip-path: url('#XMLID_38_');" transform="matrix(0.8341791839212486, -0.5514939398172735, 0.5514939398172735, 0.8341791839212486, -247.6695833155178, 441.1962958717048)"/><path id="XMLID_28_" class="st15" d="M399.4,218.7c-2.4-6.8-2.3-15.8-7-22.4c-3.4-4.8-12.4-12-19-10.1&#10;&#9;&#9;&#9;&#9;&#9;c-8.1,2.3-7.6,16.5-4.2,22.3c4.4,7.5,14.3,18.2,22.4,21.9C398.8,233.7,402.5,227.1,399.4,218.7z" style="fill: rgb(247, 183, 148); clip-path: url('#XMLID_38_');" transform="matrix(0.8341791839212486, -0.5514939398172735, 0.5514939398172735, 0.8341791839212486, -247.6695833155178, 441.1962958717048)"/><path id="XMLID_29_" class="st28" d="M394.2,219.9c0.2,0.2,0.4,0.2,0.5,0c-1.7-2.7-5.8-3-7.5-6.2c-1.8-3.3-0.3-6.6,2.4-9.1&#10;&#9;&#9;&#9;&#9;&#9;c-1.7-4-3.5-7-6.8-9.9c-3.7-3.3-9.3-2-9.9,3.6c0.3-5.4,8.2,1,8.5,4c-8.4-2.1-4.8,12.7,1.3,14.4c-1.1-1.8-1-4.1,0.2-5.8&#10;&#9;&#9;&#9;&#9;&#9;C384.5,216.6,389,218.9,394.2,219.9z" style="fill: rgb(201, 125, 93); clip-path: url('#XMLID_38_');" transform="matrix(0.8341791839212486, -0.5514939398172735, 0.5514939398172735, 0.8341791839212486, -247.6695833155178, 441.1962958717048)"/><path id="XMLID_888_" class="st29" d="M400.7,331.8l-3-7.3l5.9-10.7l-9.6-8.2l-9.4,12.4l5.3,7.7l-6.5,17.5&#10;&#9;&#9;&#9;&#9;&#9;&#9;c2.4,8.6,5.1,17,8.5,25.3C394.3,356.1,397.2,343.9,400.7,331.8z" style="fill: rgb(160, 33, 34); clip-path: url('#XMLID_38_');" transform="matrix(0.8341791839212486, -0.5514939398172735, 0.5514939398172735, 0.8341791839212486, -247.6695833155178, 441.1962958717048)"/><path id="XMLID_34_" class="st30" d="M403.3,128.2c2.7-0.7,5.4-1.5,8.1-2.2c-1.2,3.4,3.2,6.1,6.7,7c8.6,2.4,17.3,4.6,26,6.6&#10;&#9;&#9;&#9;&#9;&#9;c9.3,2.1,19.5,3.8,28-0.6c1.6-0.8,3.1-1.9,4.9-2.1c1.8-0.2,3.9,0.7,4.2,2.4c-0.1-2.9-0.7-5.9-1.8-8.6c2.9,1.1,5.7,2.3,8.6,3.4&#10;&#9;&#9;&#9;&#9;&#9;c-0.7-1.6-1.3-3.2-2-4.8c4.6,2.9,7.5,8.3,7.5,13.8c-1.6-1.2-3.2-2.4-4.7-3.6c2.3,1.7,1.1,5.8-1.6,6.8c-2.7,1-5.7-0.4-7.8-2.4&#10;&#9;&#9;&#9;&#9;&#9;c-0.1,3.9-4.7,5.9-8.5,6.6c-19.9,3.9-41.2-0.3-58.1-11.6c-0.1,1.3-0.7,2.5-1.8,3.3c-1.3-2.7-1.8-5.7-1.5-8.7&#10;&#9;&#9;&#9;&#9;&#9;c-2.4,1.8-4.8,3.5-7.2,5.3c1.7-1.8,0.2-5.3-2.3-5.7c-2.5-0.4-4.9,1.9-5.1,4.5c0.8-8.6,5.9-12.9,12.5-18.4&#10;&#9;&#9;&#9;&#9;&#9;C405.4,122,403.9,125,403.3,128.2z" style="fill: rgb(167, 78, 64); clip-path: url('#XMLID_38_');" transform="matrix(0.8341791839212486, -0.5514939398172735, 0.5514939398172735, 0.8341791839212486, -247.6695833155178, 441.1962958717048)"/><path id="XMLID_35_" class="st30" d="M363.6,160.1c0.4,1.3,0.5,2.7,0.4,4c1.5-0.2,2.9-0.3,4.4-0.5c-0.6,1.9,1.4,3.4,3.2,4.3&#10;&#9;&#9;&#9;&#9;&#9;c2.3,1.1,4.5,2.2,6.8,3.3c3.1,1.5,6.9,3,9.7,1c1-0.7,1.9-1.8,3.1-1.5c1.9,0.5,1,4,2.8,4.9c0.8,0.4,1.8,0.1,2.7-0.3&#10;&#9;&#9;&#9;&#9;&#9;c1.2-0.5,2.5-1.1,3.7-1.6c1.7-0.8,3.6-1.6,4.6-3.2c0.9,4.9-1.8,10.3-6.4,12.5c0.2-1.5,0.4-3,0.6-4.4c-2.7,0.8-4,5.2-6.7,4.6&#10;&#9;&#9;&#9;&#9;&#9;c-1.9-0.4-2.3-3-2.3-4.9c-1.5-0.9-3.2,0.8-4.9,1.5c-2.1,0.9-4.6-0.1-6.7-1c-2.5-1.1-5-2.2-7.4-3.3c-2.1-0.9-4.3-2.1-5.1-4.2&#10;&#9;&#9;&#9;&#9;&#9;c-0.2-0.5-0.3-1.1-0.8-1.4c-1.1-0.6-2.6,1.5-3.5,0.6c-0.4-1.4-0.8-2.7-1.2-4.1c0.2,0.7-2.7,3.4-3,3.6&#10;&#9;&#9;&#9;&#9;&#9;C355.9,166.3,360.1,161.5,363.6,160.1z" style="fill: rgb(167, 78, 64); clip-path: url('#XMLID_38_');" transform="matrix(0.8341791839212486, -0.5514939398172735, 0.5514939398172735, 0.8341791839212486, -247.6695833155178, 441.1962958717048)"/><path id="XMLID_902_" class="st6" d="M448.1,201.5c-0.3-0.8-1.4-0.6-1.5,0.2c0,0.5-0.2,0.9-0.3,1.3c-0.4,1.1,1.4,1.6,1.8,0.5&#10;&#9;&#9;&#9;&#9;&#9;C448.3,202.8,448.3,202.2,448.1,201.5z" style="fill: rgb(255, 255, 255); clip-path: url('#XMLID_38_');" transform="matrix(0.8341791839212486, -0.5514939398172735, 0.5514939398172735, 0.8341791839212486, -247.6695833155178, 441.1962958717048)"/><path id="XMLID_904_" class="st6" d="M468.7,195.6c-0.3-0.6-1.3-0.3-1.3,0.3c0,0.6,0.1,1.2,0.3,1.8c0.1,0.4,0.5,0.9,1,0.8&#10;&#9;&#9;&#9;&#9;&#9;c0.4-0.1,0.6-0.7,0.5-1.1C469.2,196.8,469,196.2,468.7,195.6z" style="fill: rgb(255, 255, 255); clip-path: url('#XMLID_38_');" transform="matrix(0.8341791839212486, -0.5514939398172735, 0.5514939398172735, 0.8341791839212486, -247.6695833155178, 441.1962958717048)"/><path id="XMLID_747_" class="st12" d="M513.9,376.6c4.8-2.4,10.5-1.1,15.6,0.5c5.1,1.6,10.5,3.4,15.7,1.9&#10;&#9;&#9;&#9;&#9;c-2.9,4.7-6.1,8.9-9,13.6c-3.2,0.6-7,0-10.1-1.1s-6.1-2.5-9.4-3.2c-3.2-0.6-6.8-0.5-9.5,1.4L513.9,376.6z" style="fill: rgb(142, 214, 29); clip-path: url('#XMLID_38_');" transform="matrix(0.8341791839212486, -0.5514939398172735, 0.5514939398172735, 0.8341791839212486, -247.6695833155178, 441.1962958717048)"/><path id="XMLID_744_" class="st12" d="M570.8,636c-5.2,3.3-12.4,3-17.4-0.6c-0.2,3.7,0.2,7.7,0,11.4c5.9,4.6,15.5,5.1,21.8,1.1&#10;&#9;&#9;&#9;&#9;C574.1,644.2,572,639.5,570.8,636z" style="fill: rgb(142, 214, 29); clip-path: url('#XMLID_38_');" transform="matrix(0.8341791839212486, -0.5514939398172735, 0.5514939398172735, 0.8341791839212486, -247.6695833155178, 441.1962958717048)"/><path id="XMLID_741_" class="st12" d="M92.7,573.3c-0.5,5.9-1.1,12-1.6,17.9c4.7,0.6,9.1,1.6,13.8,2.2&#10;&#9;&#9;&#9;&#9;c-0.1-5.7-0.1-11.4-0.2-17.1C101,575.8,96.4,573.9,92.7,573.3z" style="fill: rgb(142, 214, 29); clip-path: url('#XMLID_38_');" transform="matrix(0.8341791839212486, -0.5514939398172735, 0.5514939398172735, 0.8341791839212486, -247.6695833155178, 441.1962958717048)"/><path id="XMLID_738_" class="st12" d="M447.4,657.1c-0.5,5.9-1.1,12-1.6,17.9c4.7,0.6,9.1,1.6,13.8,2.2&#10;&#9;&#9;&#9;&#9;c-0.1-5.7-0.1-11.4-0.2-17.1C455.7,659.5,451.1,657.7,447.4,657.1z" style="fill: rgb(142, 214, 29); clip-path: url('#XMLID_38_');" transform="matrix(0.8341791839212486, -0.5514939398172735, 0.5514939398172735, 0.8341791839212486, -247.6695833155178, 441.1962958717048)"/><path id="XMLID_735_" class="st12" d="M413.9,643.6c-5.2,3.3-12.4,3-17.4-0.6c-0.2,3.7,0.2,7.7,0,11.4c5.9,4.6,15.5,5.1,21.8,1.1&#10;&#9;&#9;&#9;&#9;C417.2,651.8,415,647.1,413.9,643.6z" style="fill: rgb(142, 214, 29); clip-path: url('#XMLID_38_');" transform="matrix(0.8341791839212486, -0.5514939398172735, 0.5514939398172735, 0.8341791839212486, -247.6695833155178, 441.1962958717048)"/><path id="XMLID_732_" class="st12" d="M511.3,727.8c4.1-1.6,8.6-2.8,12.7-4.5c0.2,4.1,2.9,7.7,6.2,10.1c3.3,2.4,7.2,3.8,11,5.1&#10;&#9;&#9;&#9;&#9;c-3.5,2.5-6.8,5.1-10.2,7.6C522.9,742.6,515.6,735.4,511.3,727.8z" style="fill: rgb(142, 214, 29); clip-path: url('#XMLID_38_');" transform="matrix(0.8341791839212486, -0.5514939398172735, 0.5514939398172735, 0.8341791839212486, -247.6695833155178, 441.1962958717048)"/><path id="XMLID_729_" class="st12" d="M311.9,517.7c4.1-3,8.2-5.4,12.3-8.4c-1.1,5.1-0.3,10.5,2.1,15c2.4,4.6,6.5,8.3,11.2,10.2&#10;&#9;&#9;&#9;&#9;c-4.9,1.6-9.9,3.7-14.9,5.3c-6.1-5-10-12.8-11.2-20.7L311.9,517.7z" style="fill: rgb(142, 214, 29); clip-path: url('#XMLID_38_');" transform="matrix(0.8341791839212486, -0.5514939398172735, 0.5514939398172735, 0.8341791839212486, -247.6695833155178, 441.1962958717048)"/><path id="XMLID_716_" class="st12" d="M427.2,719.6c4.1-3,8.2-5.4,12.3-8.4c-1.1,5.1-0.3,10.5,2.1,15c2.4,4.6,6.5,8.3,11.2,10.2&#10;&#9;&#9;&#9;&#9;c-4.9,1.6-9.9,3.7-14.9,5.3c-6.1-5-10-12.8-11.2-20.7L427.2,719.6z" style="fill: rgb(142, 214, 29); clip-path: url('#XMLID_38_');" transform="matrix(0.8341791839212486, -0.5514939398172735, 0.5514939398172735, 0.8341791839212486, -247.6695833155178, 441.1962958717048)"/><path id="XMLID_645_" class="st12" d="M189,775.3c4.8-2.4,10.5-1.1,15.6,0.5s10.5,3.4,15.7,1.9c-2.9,4.7-6.1,8.9-9,13.6&#10;&#9;&#9;&#9;&#9;c-3.2,0.6-7,0-10.1-1.1c-3.1-1.1-6.1-2.5-9.4-3.2c-3.2-0.6-6.8-0.5-9.5,1.4L189,775.3z" style="fill: rgb(142, 214, 29); clip-path: url('#XMLID_38_');" transform="matrix(0.8341791839212486, -0.5514939398172735, 0.5514939398172735, 0.8341791839212486, -247.6695833155178, 441.1962958717048)"/><path id="XMLID_642_" class="st12" d="M174.4,564.2c3.2,3.3,5.1,7.6,7.5,11.6c2.4,3.9,5.6,7.8,10,9c-3.6,3.7-6.7,7.4-10.3,11.1&#10;&#9;&#9;&#9;&#9;c-2.7-1-5.1-3-7-5.2c-1.6-1.9-2.9-4.1-4.1-6.3c-1.2-2.1-2.3-4.2-3.5-6.4L174.4,564.2z" style="fill: rgb(142, 214, 29); clip-path: url('#XMLID_38_');" transform="matrix(0.8341791839212486, -0.5514939398172735, 0.5514939398172735, 0.8341791839212486, -247.6695833155178, 441.1962958717048)"/><path id="XMLID_5_" class="st12" d="M354.4,807.9c1.9-4.1,3.7-8.5,5.6-12.6c9.2,2.2,19.1,1.6,28.1-1.2c-1.3,4.6-2.5,9.2-3.8,13.9&#10;&#9;&#9;&#9;&#9;C374.9,809.1,363.8,809.1,354.4,807.9z" style="fill: rgb(142, 214, 29); clip-path: url('#XMLID_38_');" transform="matrix(0.8341791839212486, -0.5514939398172735, 0.5514939398172735, 0.8341791839212486, -247.6695833155178, 441.1962958717048)"/><path d="M 812.400024 485.200012 A 55 23.5 0 0 1 757.400024 508.700012 A 55 23.5 0 0 1 702.400024 485.200012 A 55 23.5 0 0 1 757.400024 461.700012 A 55 23.5 0 0 1 812.400024 485.200012 Z" id="XMLID_777_" transform="matrix(0.8349961890597799, -0.5502579619962409, 0.5502579619962409, 0.8349961890597799, -247.68775206051436, 439.8636055606867)" class="st3" style="fill: rgb(186, 101, 9); clip-path: url('#XMLID_38_');"/><path d="M 811.799988 478.700012 A 55 23.5 0 0 1 756.799988 502.200012 A 55 23.5 0 0 1 701.799988 478.700012 A 55 23.5 0 0 1 756.799988 455.200012 A 55 23.5 0 0 1 811.799988 478.700012 Z" id="XMLID_776_" transform="matrix(0.8349961890597799, -0.5502579619962409, 0.5502579619962409, 0.8349961890597799, -247.69524550297837, 439.86967724301775)" class="st4" style="fill: rgb(247, 148, 30); clip-path: url('#XMLID_38_');"/><path d="M 800.899986 478.700012 A 44.099998 18.9 0 0 1 756.799988 497.600012 A 44.099998 18.9 0 0 1 712.699989 478.700012 A 44.099998 18.9 0 0 1 756.799988 459.800013 A 44.099998 18.9 0 0 1 800.899986 478.700012 Z" id="XMLID_775_" transform="matrix(0.8349961890597799, -0.5502579619962409, 0.5502579619962409, 0.8349961890597799, -247.69524550297837, 439.86967724301775)" class="st3" style="fill: rgb(186, 101, 9); clip-path: url('#XMLID_38_');"/><path d="M 797.499989 478.700012 A 40.700001 17.4 0 0 1 756.799988 496.100012 A 40.700001 17.4 0 0 1 716.099987 478.700012 A 40.700001 17.4 0 0 1 756.799988 461.300013 A 40.700001 17.4 0 0 1 797.499989 478.700012 Z" id="XMLID_774_" transform="matrix(0.8349961890597799, -0.5502579619962409, 0.5502579619962409, 0.8349961890597799, -247.69524550297837, 439.86967724301775)" class="st5" style="fill: rgb(251, 176, 64); clip-path: url('#XMLID_38_');"/><path id="XMLID_773_" class="st6" d="M734.7,466.4L734.7,466.4c-1.5-0.8-4.4-0.9-6.2-0.2c-6.5,2.7-10.9,6.3-12.1,10.3&#10;&#9;&#9;&#9;&#9;&#9;c-0.3,1.1,1.7,2,4.2,2l0,0c2.1,0,3.8-0.7,4.1-1.6c1-3.2,4.5-6.1,9.6-8.2C735.8,468.1,735.9,467.1,734.7,466.4z" style="fill: rgb(255, 255, 255); clip-path: url('#XMLID_38_');" transform="matrix(0.8341791839212486, -0.5514939398172735, 0.5514939398172735, 0.8341791839212486, -247.6695833155178, 441.1962958717048)"/><path id="XMLID_772_" class="st4" d="M792.8,481.7L792.8,481.7c-2.2-0.3-4.4,0.3-5.1,1.2c-3.3,4.5-11.8,8-22.6,9.3&#10;&#9;&#9;&#9;&#9;&#9;c-2.3,0.3-3.6,1.3-2.9,2.2l0,0c0.7,0.9,2.9,1.4,5,1.2c13.5-1.5,24.3-5.9,28.4-11.6C796.4,483,795.1,482,792.8,481.7z" style="fill: rgb(247, 148, 30); clip-path: url('#XMLID_38_');" transform="matrix(0.8341791839212486, -0.5514939398172735, 0.5514939398172735, 0.8341791839212486, -247.6695833155178, 441.1962958717048)"/><path id="XMLID_771_" class="st6" d="M742.1,464.6L742.1,464.6c0.9,0.8,3.1,1.2,5,0.9c0.9-0.1,1.8-0.2,2.7-0.3&#10;&#9;&#9;&#9;&#9;&#9;c1.9-0.2,3.3-0.9,3.3-1.7v0c0-1.1-2.4-2-5-1.7c-1.2,0.1-2.4,0.2-3.6,0.4C742.1,462.4,741,463.6,742.1,464.6z" style="fill: rgb(255, 255, 255); clip-path: url('#XMLID_38_');" transform="matrix(0.8341791839212486, -0.5514939398172735, 0.5514939398172735, 0.8341791839212486, -247.6695833155178, 441.1962958717048)"/><path id="XMLID_769_" class="st3" d="M753.3,490.1l0-2.6c-4.4-0.1-8.6-0.6-11.1-1.2l2-3.3c2.7,0.6,6.6,1.2,10.8,1.2&#10;&#9;&#9;&#9;&#9;&#9;&#9;c3.7,0,6.3-0.6,6.3-1.7c0-1.1-2.1-1.7-6.9-2.4c-7-1-11.7-2.4-11.7-5.1c0-2.5,4-4.4,11-4.9l0-2.6l6.4,0l0,2.5&#10;&#9;&#9;&#9;&#9;&#9;&#9;c4.4,0.1,7.3,0.5,9.4,0.9l-1.9,3.1c-1.7-0.3-4.7-1-9.4-1c-4.2,0-5.6,0.8-5.6,1.6c0,0.9,2.3,1.5,7.8,2.4&#10;&#9;&#9;&#9;&#9;&#9;&#9;c7.8,1.2,10.9,2.7,10.9,5.2c0,2.5-4.1,4.6-11.6,5.1l0,2.8L753.3,490.1z" style="fill: rgb(186, 101, 9); clip-path: url('#XMLID_38_');" transform="matrix(0.8341791839212486, -0.5514939398172735, 0.5514939398172735, 0.8341791839212486, -247.6695833155178, 441.1962958717048)"/><path d="M 757.099976 800.799988 A 55 55 0 0 1 702.099976 855.799988 A 55 55 0 0 1 647.099976 800.799988 A 55 55 0 0 1 702.099976 745.799988 A 55 55 0 0 1 757.099976 800.799988 Z" id="XMLID_766_" class="st3" style="fill: rgb(186, 101, 9); clip-path: url('#XMLID_38_');" transform="matrix(0.8341791839212486, -0.5514939398172735, 0.5514939398172735, 0.8341791839212486, -247.6695833155178, 441.1962958717048)"/><path d="M 752.900024 802 A 55 55 0 0 1 697.900024 857 A 55 55 0 0 1 642.900024 802 A 55 55 0 0 1 697.900024 747 A 55 55 0 0 1 752.900024 802 Z" id="XMLID_765_" class="st4" style="fill: rgb(247, 148, 30); clip-path: url('#XMLID_38_');" transform="matrix(0.8341791839212486, -0.5514939398172735, 0.5514939398172735, 0.8341791839212486, -247.6695833155178, 441.1962958717048)"/><path d="M 742.000023 802 A 44.099998 44.099998 0 0 1 697.900024 846.099998 A 44.099998 44.099998 0 0 1 653.800026 802 A 44.099998 44.099998 0 0 1 697.900024 757.900002 A 44.099998 44.099998 0 0 1 742.000023 802 Z" id="XMLID_764_" class="st3" style="fill: rgb(186, 101, 9); clip-path: url('#XMLID_38_');" transform="matrix(0.8341791839212486, -0.5514939398172735, 0.5514939398172735, 0.8341791839212486, -247.6695833155178, 441.1962958717048)"/><path d="M 738.600025 802 A 40.700001 40.700001 0 0 1 697.900024 842.700001 A 40.700001 40.700001 0 0 1 657.200024 802 A 40.700001 40.700001 0 0 1 697.900024 761.299999 A 40.700001 40.700001 0 0 1 738.600025 802 Z" id="XMLID_763_" class="st5" style="fill: rgb(251, 176, 64); clip-path: url('#XMLID_38_');" transform="matrix(0.8341791839212486, -0.5514939398172735, 0.5514939398172735, 0.8341791839212486, -247.6695833155178, 441.1962958717048)"/><path id="XMLID_762_" class="st6" d="M666.2,784.4L666.2,784.4c-2.2-1.2-4.9-0.3-5.9,2c-3.5,8.3-4.2,17.8-1.6,26.9&#10;&#9;&#9;&#9;&#9;&#9;c0.7,2.4,3.4,3.7,5.7,2.6h0c1.9-0.9,2.8-3,2.3-5c-2.1-7.3-1.5-14.8,1.3-21.4C668.8,787.6,668,785.4,666.2,784.4z" style="fill: rgb(255, 255, 255); clip-path: url('#XMLID_38_');" transform="matrix(0.8341791839212486, -0.5514939398172735, 0.5514939398172735, 0.8341791839212486, -247.6695833155178, 441.1962958717048)"/><path id="XMLID_761_" class="st4" d="M733.7,794.1L733.7,794.1c-2.2,0.3-3.8,2.3-3.6,4.5c1.2,11-3.4,22-12.1,28.9&#10;&#9;&#9;&#9;&#9;&#9;c-1.9,1.5-2.2,4.2-0.6,6l0,0c1.4,1.7,3.9,1.9,5.7,0.6c11-8.6,16.8-22.4,15.3-36.3C738.1,795.4,736,793.7,733.7,794.1z" style="fill: rgb(247, 148, 30); clip-path: url('#XMLID_38_');" transform="matrix(0.8341791839212486, -0.5514939398172735, 0.5514939398172735, 0.8341791839212486, -247.6695833155178, 441.1962958717048)"/><path id="XMLID_760_" class="st6" d="M671.3,777.5L671.3,777.5c1.6,1.3,3.9,1.3,5.4-0.1c0.7-0.6,1.4-1.2,2.2-1.7&#10;&#9;&#9;&#9;&#9;&#9;c1.6-1.1,2.2-3.2,1.4-5l0,0c-1-2.4-4.1-3.3-6.2-1.8c-1,0.7-2,1.5-2.9,2.3C669.4,772.9,669.4,775.9,671.3,777.5z" style="fill: rgb(255, 255, 255); clip-path: url('#XMLID_38_');" transform="matrix(0.8341791839212486, -0.5514939398172735, 0.5514939398172735, 0.8341791839212486, -247.6695833155178, 441.1962958717048)"/><path id="XMLID_758_" class="st3" d="M705.2,827.8l-2.4-5.7c-4.1,1.5-8.4,2.1-11.3,1.8l-1.2-7.8c3.1,0.3,7.2,0,11.1-1.6&#10;&#9;&#9;&#9;&#9;&#9;&#9;c3.4-1.5,5.2-3.8,4.2-6.2c-1-2.3-3.5-2.9-8.6-2.5c-7.3,0.6-13-0.5-15.5-6.3c-2.3-5.3-0.3-11,5.5-15l-2.4-5.7l5.9-2.5l2.3,5.3&#10;&#9;&#9;&#9;&#9;&#9;&#9;c4.1-1.5,7.1-1.9,9.5-1.7l1.2,7.5c-1.8,0-5.2-0.2-9.5,1.7c-3.9,1.7-4.4,3.9-3.7,5.6c0.8,2,3.5,2.3,9.4,2.1&#10;&#9;&#9;&#9;&#9;&#9;&#9;c8.2-0.5,12.5,1.5,14.8,6.9c2.3,5.3,0.5,11.5-5.9,15.6l2.6,6.1L705.2,827.8z" style="fill: rgb(186, 101, 9); clip-path: url('#XMLID_38_');" transform="matrix(0.8341791839212486, -0.5514939398172735, 0.5514939398172735, 0.8341791839212486, -247.6695833155178, 441.1962958717048)"/><path d="M 540.799988 398 H 645.299988 V 414.299999 H 540.799988 V 398 Z" id="XMLID_817_" transform="matrix(0.5688252392441993, -0.8224898429493327, 0.8224898429493327, 0.5688252392441993, -200.34471749465933, 709.664558905496)" class="st4" style="fill: rgb(247, 148, 30); clip-path: url('#XMLID_38_');"/><path id="XMLID_816_" class="st6" d="M563.7,411.6L563.7,411.6c0.5,1.2,1.8,1.8,3.1,1.3l27.6-11.1c1.2-0.5,1.8-1.8,1.3-3.1l0,0&#10;&#9;&#9;&#9;&#9;&#9;c-0.5-1.2-1.8-1.8-3.1-1.3L565,408.6C563.8,409.1,563.2,410.4,563.7,411.6z" style="fill: rgb(255, 255, 255); clip-path: url('#XMLID_38_');" transform="matrix(0.8341791839212486, -0.5514939398172735, 0.5514939398172735, 0.8341791839212486, -247.6695833155178, 441.1962958717048)"/><path id="XMLID_815_" class="st3" d="M608.2,403.8c-1.2,0.5-1.8,1.8-1.3,3.1c0.5,1.2,1.8,1.8,3.1,1.3l2.6-1&#10;&#9;&#9;&#9;&#9;&#9;c1.2-0.5,1.8-1.8,1.3-3.1l0,0c-0.5-1.2-1.8-1.8-3.1-1.3L608.2,403.8z" style="fill: rgb(186, 101, 9); clip-path: url('#XMLID_38_');" transform="matrix(0.8341791839212486, -0.5514939398172735, 0.5514939398172735, 0.8341791839212486, -247.6695833155178, 441.1962958717048)"/><path id="XMLID_814_" class="st3" d="M638.5,379.1l-4.4,1.8l3.4,8.4c0.5,1.3-0.1,2.9-1.4,3.4l-18,7.2c-1.2,0.5-1.8,1.8-1.3,3.1&#10;&#9;&#9;&#9;&#9;&#9;l0,0c0.5,1.2,1.8,1.8,3.1,1.3l24.7-9.9L638.5,379.1z" style="fill: rgb(186, 101, 9); clip-path: url('#XMLID_38_');" transform="matrix(0.8341791839212486, -0.5514939398172735, 0.5514939398172735, 0.8341791839212486, -247.6695833155178, 441.1962958717048)"/><path id="XMLID_813_" class="st6" d="M560.4,412.9L560.4,412.9c-0.5-1.2-1.8-1.8-3.1-1.3l-5.8,2.3c-1.2,0.5-1.8,1.8-1.3,3.1h0&#10;&#9;&#9;&#9;&#9;&#9;c0.5,1.2,1.8,1.8,3.1,1.3l5.8-2.3C560.3,415.5,560.9,414.1,560.4,412.9z" style="fill: rgb(255, 255, 255); clip-path: url('#XMLID_38_');" transform="matrix(0.8341791839212486, -0.5514939398172735, 0.5514939398172735, 0.8341791839212486, -247.6695833155178, 441.1962958717048)"/>
</svg>